<?xml version="1.0" standalone="no"?>
<!DOCTYPE svg PUBLIC "-//W3C//DTD SVG 20010904//EN"
 "http://www.w3.org/TR/2001/REC-SVG-20010904/DTD/svg10.dtd">
<svg version="1.0" xmlns="http://www.w3.org/2000/svg"
 width="1024.000000pt" height="1024.000000pt" viewBox="0 0 1024.000000 1024.000000"
 preserveAspectRatio="xMidYMid meet">
<metadata>
Created by potrace 1.14, written by Peter Selinger 2001-2017
</metadata>
<g transform="translate(0.000000,1024.000000) scale(0.100000,-0.100000)"
fill="#000000" stroke="none">
<path d="M4847 8685 c-222 -82 -277 -363 -102 -524 25 -23 66 -52 91 -62 l44
-20 0 -332 0 -333 -85 -18 c-47 -9 -116 -28 -154 -41 l-68 -23 -6 142 c-4 77
-7 180 -7 228 l0 88 -92 88 c-51 49 -114 108 -141 133 -47 44 -47 44 -36 84
22 77 -12 189 -78 257 -19 20 -63 49 -96 63 -53 24 -69 27 -136 23 -116 -7
-208 -66 -256 -163 -31 -62 -28 -194 5 -258 77 -152 255 -214 398 -140 l60 30
106 -99 106 -100 0 -229 0 -229 -62 -30 c-128 -62 -328 -225 -434 -352 l-39
-47 -95 26 c-89 25 -109 27 -300 27 -192 0 -211 -2 -305 -27 -105 -28 -253
-94 -333 -148 -197 -134 -357 -349 -423 -568 -16 -54 -27 -75 -42 -79 -11 -3
-60 -25 -109 -49 -367 -178 -620 -522 -679 -922 -15 -108 -7 -372 15 -466 62
-260 188 -490 365 -665 160 -160 364 -280 559 -330 68 -17 194 -39 230 -40 9
0 12 -36 12 -146 l0 -146 -47 -61 c-25 -34 -47 -63 -48 -65 -1 -1 -30 5 -65
14 -225 57 -421 -146 -356 -371 14 -46 29 -70 74 -115 64 -64 124 -90 206 -90
207 0 351 219 267 407 l-23 53 39 47 c96 116 93 107 93 300 l0 173 220 0 220
0 0 -142 c0 -79 3 -301 7 -494 l6 -350 -45 -17 c-212 -81 -261 -374 -88 -530
64 -58 137 -81 234 -75 85 6 136 29 199 93 80 80 110 215 71 328 -21 62 -90
137 -159 173 l-55 29 0 493 0 492 230 0 230 0 1 -97 c1 -54 1 -120 2 -148 0
-27 -1 -77 -2 -110 -1 -58 -3 -61 -44 -90 -112 -79 -148 -135 -111 -176 13
-14 30 -19 73 -19 64 1 64 0 154 97 l67 72 0 236 0 235 150 0 150 0 0 -323 0
-322 -157 -130 c-196 -163 -220 -198 -172 -259 25 -31 81 -36 119 -9 14 9 103
86 198 170 l172 154 0 359 0 360 154 0 153 0 7 -46 c3 -26 6 -262 6 -524 0
-464 1 -478 20 -503 11 -14 29 -29 40 -32 23 -7 75 18 84 40 3 9 6 253 6 541
l0 524 160 0 160 0 0 -364 0 -364 165 -157 165 -157 0 -168 0 -167 -49 -31
c-124 -77 -173 -239 -113 -375 101 -228 422 -236 532 -13 83 168 5 357 -172
415 l-38 13 0 203 0 203 -117 115 c-65 63 -139 133 -165 157 l-48 43 0 323 0
324 165 0 165 0 0 -244 0 -243 73 -70 c75 -71 100 -83 173 -83 35 0 54 20 54
59 0 28 -53 85 -122 132 l-58 40 0 204 0 205 250 0 250 0 0 -335 0 -334 -43
-19 c-56 -25 -110 -79 -144 -145 -22 -43 -27 -65 -27 -132 -1 -71 3 -88 32
-147 37 -76 83 -120 160 -156 47 -21 65 -24 131 -20 122 7 215 69 268 176 24
48 28 70 28 137 0 67 -5 89 -28 137 -33 68 -106 137 -168 159 l-44 16 -3 331
-2 332 145 0 145 0 0 -175 0 -174 56 -42 c31 -23 103 -70 161 -106 91 -57 104
-68 98 -87 -16 -56 -17 -135 -1 -191 23 -78 106 -163 185 -190 152 -50 313 29
372 184 84 222 -142 452 -366 372 -33 -12 -65 -23 -72 -24 -7 -1 -71 39 -142
88 l-131 90 0 126 0 126 133 6 c270 11 471 77 694 226 291 195 496 513 558
865 32 188 13 453 -45 627 -100 298 -267 520 -528 701 -76 52 -248 142 -295
153 l-27 7 0 324 0 323 48 21 c60 27 116 81 150 145 23 43 27 62 27 135 0 73
-4 92 -27 135 -60 113 -154 170 -283 170 -67 0 -89 -4 -137 -28 -109 -53 -163
-143 -163 -272 0 -67 4 -89 28 -137 31 -63 77 -109 143 -141 l44 -21 0 -304 0
-304 -22 7 c-13 3 -90 9 -173 12 -113 4 -173 1 -243 -11 -50 -9 -96 -16 -100
-16 -5 0 -16 26 -26 57 -65 206 -234 470 -415 650 l-81 81 0 208 0 209 101
101 101 101 57 -29 c118 -61 238 -46 334 42 206 188 74 516 -208 514 -152 -1
-284 -130 -287 -280 -1 -32 2 -69 6 -80 6 -19 -14 -41 -129 -150 l-135 -128 0
-188 0 -189 -61 42 c-133 90 -368 191 -546 234 l-73 18 0 279 0 279 87 83 87
84 39 -14 c170 -60 349 66 348 244 0 72 -17 117 -65 170 -52 57 -111 82 -193
82 -107 -1 -183 -43 -226 -125 -31 -61 -37 -103 -26 -175 l10 -65 -110 -105
-111 -105 0 -303 0 -302 -150 0 -150 0 0 320 0 320 47 22 c60 28 115 83 150
150 37 72 39 187 4 265 -63 140 -250 220 -394 168z m170 -174 c44 -21 83 -78
83 -123 0 -37 -42 -99 -80 -120 -95 -52 -219 29 -206 135 6 52 30 85 79 108
53 23 71 23 124 0z m851 -97 c47 -53 9 -124 -67 -124 -93 0 -109 120 -21 153
26 10 64 -3 88 -29z m-1797 -167 c91 -61 56 -202 -55 -223 -45 -8 -68 0 -105
38 -55 57 -51 131 11 183 39 33 102 34 149 2z m2729 -303 c37 -22 60 -64 60
-109 0 -30 -8 -45 -39 -76 -34 -34 -44 -39 -86 -39 -42 0 -52 5 -86 39 -31 31
-39 46 -39 76 0 97 106 158 190 109z m-1486 -684 c364 -30 686 -182 962 -455
217 -215 361 -456 441 -740 14 -49 27 -91 27 -92 1 -2 26 7 55 18 160 60 371
83 526 56 508 -89 903 -495 971 -997 18 -141 18 -197 -5 -332 -31 -178 -107
-362 -204 -494 -60 -82 -186 -204 -274 -264 -134 -93 -320 -167 -483 -190 -39
-6 -969 -10 -2333 -10 -2243 0 -2270 0 -2369 20 -209 43 -387 140 -547 299
-401 398 -453 1020 -123 1457 127 168 280 278 501 358 l84 31 23 97 c28 118
68 208 131 296 123 173 317 305 530 364 64 17 106 21 233 21 176 0 259 -17
371 -75 35 -18 67 -33 71 -33 3 0 30 32 59 70 29 39 96 113 149 165 246 243
573 396 923 429 120 12 142 12 281 1z m2252 -35 c33 -22 64 -73 64 -108 0 -73
-63 -137 -136 -137 -147 0 -199 190 -69 252 46 21 102 19 141 -7z m-4984
-4227 c51 -19 77 -87 54 -141 -42 -101 -171 -104 -222 -5 -21 41 -11 89 26
127 40 39 75 44 142 19z m5004 -7 c65 -39 66 -132 3 -186 -64 -53 -166 -20
-188 62 -28 102 91 181 185 124z m-966 -263 c59 -31 83 -66 83 -123 0 -101
-108 -172 -197 -130 -109 52 -112 196 -6 252 54 29 65 29 120 1z m-3121 -323
c39 -20 75 -95 67 -138 -27 -143 -196 -173 -264 -46 -37 69 -17 138 51 179 38
24 106 26 146 5z m2361 -380 c79 -41 78 -167 -2 -211 -94 -53 -211 41 -178
141 24 74 109 107 180 70z"/>
<path d="M4607 5990 c-33 -27 -39 -45 -157 -525 -55 -225 -115 -464 -132 -529
l-31 -119 -14 44 c-7 24 -44 181 -83 349 -131 576 -135 592 -170 623 -44 39
-103 33 -134 -15 -12 -18 -104 -337 -180 -628 l-12 -45 -365 -5 c-200 -3 -372
-9 -382 -14 -38 -18 -58 -87 -37 -127 25 -46 47 -49 409 -49 l340 0 27 -25
c31 -29 78 -33 111 -10 25 18 37 52 102 294 28 101 52 185 54 188 7 7 153
-596 208 -857 10 -52 24 -109 30 -127 12 -39 66 -67 109 -58 62 14 66 24 215
628 76 312 142 567 145 567 10 0 291 -1071 346 -1315 38 -172 53 -195 129
-195 61 0 87 36 119 165 15 61 57 218 92 350 107 392 203 757 210 792 3 18 9
33 13 33 11 0 128 -486 216 -893 20 -95 44 -126 102 -134 51 -7 87 13 108 60
8 18 42 136 75 262 33 127 79 292 102 368 l41 138 19 -28 c11 -15 41 -72 68
-125 28 -53 59 -102 69 -108 30 -16 66 -12 94 10 24 19 40 20 322 20 l297 0
29 29 c31 31 36 64 18 104 -23 50 -32 52 -366 57 l-312 5 -85 175 c-96 198
-127 240 -175 240 -60 0 -82 -36 -125 -205 -21 -82 -62 -237 -92 -343 -30
-106 -54 -200 -54 -209 0 -11 -3 -14 -10 -7 -10 10 -55 195 -175 719 -31 138
-63 265 -71 283 -18 44 -74 69 -116 51 -40 -17 -60 -62 -109 -254 -22 -88 -62
-241 -89 -340 -26 -99 -65 -243 -85 -320 -43 -167 -79 -295 -107 -390 l-21
-70 -34 120 c-34 121 -170 643 -304 1165 -48 188 -55 205 -87 230 -32 26 -72
25 -105 0z"/>
<path d="M2505 7768 c-69 -25 -138 -93 -172 -168 -25 -56 -22 -174 5 -236 68
-152 258 -224 398 -151 28 14 65 37 82 51 l30 26 301 0 301 0 0 -146 0 -146
29 -29 c35 -35 48 -36 92 -6 l34 23 3 155 2 156 -85 81 -85 82 -258 0 -259 0
-7 53 c-14 105 -74 192 -163 237 -38 20 -66 25 -133 27 -47 1 -98 -3 -115 -9z
m176 -175 c83 -49 72 -182 -19 -220 -131 -55 -240 120 -131 211 37 31 105 35
150 9z"/>
<path d="M4900 2383 c-19 -15 -73 -61 -120 -102 -47 -41 -95 -84 -107 -94 -22
-19 -23 -19 -80 4 -199 82 -417 -60 -415 -270 0 -90 29 -156 96 -219 68 -65
126 -86 214 -80 37 3 84 13 104 22 139 66 207 220 163 368 l-19 60 50 44 c27
25 68 61 92 80 l42 36 65 -16 c93 -23 120 -21 145 11 46 58 1 134 -98 168 -64
21 -92 19 -132 -12z m-363 -353 c74 -45 83 -139 19 -197 -81 -74 -206 -21
-206 87 0 67 61 130 125 130 17 0 44 -9 62 -20z"/>
</g>
</svg>
