<?xml version="1.0" standalone="no"?>
<!DOCTYPE svg PUBLIC "-//W3C//DTD SVG 20010904//EN"
 "http://www.w3.org/TR/2001/REC-SVG-20010904/DTD/svg10.dtd">
<svg version="1.0" xmlns="http://www.w3.org/2000/svg"
 width="712.000000pt" height="712.000000pt" viewBox="0 0 712.000000 712.000000"
 preserveAspectRatio="xMidYMid meet">
<metadata>
Created by potrace 1.14, written by Peter Selinger 2001-2017
</metadata>
<g transform="translate(0.000000,712.000000) scale(0.100000,-0.100000)"
fill="#000000" stroke="none">
<path d="M3466 7099 c3 -6 -4 -7 -20 -3 -18 4 -26 2 -26 -7 0 -11 -3 -11 -10
1 -7 11 -10 11 -10 2 0 -7 -4 -10 -10 -7 -5 3 -10 2 -10 -4 0 -6 -12 -14 -27
-17 -16 -4 -39 -18 -52 -31 -13 -12 -28 -23 -32 -23 -5 0 -9 -7 -9 -16 0 -8
-4 -12 -10 -9 -5 3 -10 0 -10 -8 0 -8 -7 -20 -15 -27 -8 -7 -12 -16 -9 -21 3
-5 0 -9 -6 -9 -6 0 -8 -4 -5 -10 3 -5 2 -10 -2 -10 -20 0 -22 -181 -3 -230 1
-3 2 -8 1 -12 0 -5 4 -8 10 -8 6 0 9 -7 5 -15 -3 -8 0 -14 6 -12 7 1 12 -3 13
-10 0 -19 90 -100 119 -107 14 -3 26 -12 26 -19 0 -8 3 -8 9 2 7 11 11 9 20
-7 14 -26 22 -112 10 -112 -5 0 -6 -6 -4 -12 8 -24 12 -148 4 -148 -4 0 -3
-15 1 -34 5 -22 3 -39 -3 -45 -8 -8 -8 -11 0 -11 11 0 10 -41 -2 -59 -3 -6 -3
-11 2 -11 7 0 9 -184 3 -200 -3 -6 -7 -22 -8 -35 -2 -10 -19 -15 -64 -18 -10
-1 -18 -4 -18 -8 0 -4 -14 -6 -30 -4 -17 2 -28 0 -26 -4 5 -7 -42 -19 -91 -23
-7 -1 -13 -6 -13 -11 0 -5 -6 -7 -14 -4 -8 3 -17 1 -20 -6 -5 -9 -7 -9 -12 1
-3 6 -9 10 -13 7 -4 -2 -7 93 -7 213 1 194 -1 219 -16 234 -10 10 -18 22 -18
26 0 5 -12 14 -26 20 -14 7 -22 17 -19 22 3 6 1 10 -5 10 -6 0 -28 17 -47 38
-20 20 -33 31 -28 23 5 -10 4 -12 -3 -7 -7 4 -12 16 -12 27 0 10 -3 18 -7 17
-16 -3 -43 15 -43 29 0 8 -4 12 -9 9 -5 -3 -12 1 -15 10 -3 8 -11 12 -17 8 -7
-4 -9 -3 -5 4 3 6 2 13 -4 17 -7 4 -7 12 0 26 8 14 7 19 -2 19 -8 0 -9 3 -3 8
6 4 10 16 10 27 0 11 3 25 8 32 4 6 3 14 -3 18 -5 3 -10 15 -10 27 0 30 -46
117 -80 148 -16 15 -26 31 -22 35 4 3 2 5 -3 4 -17 -5 -55 12 -55 23 0 6 -3 9
-6 5 -4 -3 -21 0 -38 7 -17 7 -46 12 -64 12 -17 -1 -32 4 -32 9 0 7 -3 7 -8 0
-4 -5 -23 -12 -42 -13 -19 -2 -38 -9 -42 -15 -6 -9 -8 -9 -8 0 0 7 -13 4 -34
-10 -18 -12 -31 -26 -28 -31 2 -5 -1 -7 -8 -4 -14 4 -60 -33 -60 -50 0 -5 -7
-13 -16 -16 -8 -3 -12 -10 -9 -16 3 -5 1 -10 -4 -10 -6 0 -10 -3 -10 -7 3 -19
-2 -34 -9 -29 -5 3 -8 -11 -7 -30 1 -18 -1 -34 -5 -34 -4 0 -7 -7 -7 -15 0 -8
5 -15 10 -15 5 0 4 -7 -3 -15 -10 -12 -10 -15 1 -15 11 0 11 -2 -1 -10 -8 -5
-10 -10 -4 -10 6 0 11 -10 10 -22 -1 -13 6 -35 17 -50 10 -16 15 -28 11 -28
-4 0 3 -8 14 -19 12 -10 20 -20 19 -22 -1 -2 10 -16 25 -31 15 -15 28 -24 28
-22 0 3 7 -1 15 -8 30 -27 45 -39 45 -35 0 3 16 -1 37 -8 20 -7 64 -11 99 -9
89 5 82 3 128 42 8 6 18 12 21 12 3 0 3 -6 -1 -12 -5 -8 0 -7 11 2 10 8 20 13
22 10 3 -3 49 -48 103 -100 53 -52 95 -98 93 -102 -2 -5 0 -8 4 -8 5 0 8 -98
8 -219 -1 -185 -4 -221 -17 -234 -9 -9 -18 -13 -22 -10 -3 3 -12 0 -21 -7 -8
-7 -15 -10 -15 -7 0 4 -16 -5 -36 -18 -20 -14 -41 -22 -47 -18 -6 3 -7 1 -3
-5 8 -13 -28 -35 -39 -24 -5 4 -5 1 -1 -5 4 -7 3 -13 -3 -13 -6 0 -19 -10 -31
-22 -11 -12 -20 -18 -20 -13 0 5 -7 -1 -16 -13 -8 -12 -20 -22 -26 -22 -6 0
-21 -12 -34 -27 -13 -16 -24 -24 -24 -18 0 5 -8 -2 -17 -15 -10 -14 -17 -28
-16 -32 2 -4 -3 -5 -11 -2 -8 3 -23 -8 -37 -28 -13 -18 -27 -34 -31 -36 -4 -2
-8 -10 -8 -18 0 -9 -4 -12 -10 -9 -5 3 -10 2 -10 -3 0 -17 -52 -65 -59 -54 -3
6 -20 12 -36 15 -17 2 -37 7 -45 10 -8 4 -31 9 -50 11 -19 3 -35 5 -35 6 0 1
-13 3 -30 5 -78 9 -104 13 -114 19 -6 4 -11 3 -11 -1 0 -5 -9 -9 -20 -9 -11 0
-20 4 -20 9 0 4 -6 5 -12 0 -18 -11 -58 -11 -58 0 0 6 -5 6 -12 0 -7 -5 -32
-9 -55 -9 -24 1 -43 -1 -43 -4 0 -4 -44 -10 -107 -14 -13 0 -23 -4 -23 -8 0
-5 -9 -8 -19 -8 -11 0 -32 -5 -48 -12 -15 -7 -32 -12 -38 -13 -24 -3 -55 -17
-55 -25 0 -5 -11 -7 -25 -4 -17 3 -27 -1 -31 -11 -4 -8 -12 -15 -20 -15 -8 0
-14 -5 -14 -11 0 -5 -4 -8 -9 -5 -4 3 -19 -3 -32 -15 -12 -11 -29 -17 -36 -14
-8 2 -12 1 -9 -4 3 -5 -13 -21 -37 -36 -23 -16 -52 -38 -63 -51 -12 -13 -23
-22 -25 -20 -2 1 -25 -19 -51 -46 -26 -26 -44 -48 -42 -48 3 0 -1 -6 -8 -14
-7 -8 -16 -12 -20 -9 -5 2 -8 -1 -8 -7 0 -6 -7 -18 -15 -27 -8 -8 -12 -19 -9
-25 4 -7 2 -8 -4 -4 -7 4 -12 1 -12 -8 0 -9 -5 -16 -11 -16 -5 0 -8 -4 -5 -9
3 -5 -1 -11 -9 -15 -8 -3 -15 -12 -15 -21 0 -8 -5 -15 -11 -15 -5 0 -7 -4 -4
-10 3 -5 1 -10 -4 -10 -6 0 -10 -3 -10 -7 4 -22 -2 -33 -13 -27 -7 4 -10 4 -6
-1 4 -4 3 -14 -3 -22 -6 -7 -8 -13 -4 -13 5 0 0 -10 -11 -22 -10 -12 -13 -18
-5 -13 9 5 8 0 -3 -17 -9 -14 -13 -28 -9 -31 3 -4 1 -7 -5 -7 -7 0 -11 -3 -10
-7 4 -22 -26 -101 -44 -112 -15 -9 -18 -10 -13 0 9 14 -9 5 -39 -20 -11 -9
-16 -11 -13 -5 4 7 -25 -4 -63 -23 -39 -19 -70 -38 -70 -42 0 -4 -9 -7 -20 -8
-12 -1 -29 -11 -38 -22 -9 -11 -23 -21 -31 -23 -19 -4 -49 -31 -44 -40 2 -4
-4 -5 -13 -1 -11 4 -15 3 -10 -5 3 -6 -3 -13 -14 -17 -11 -4 -17 -11 -14 -17
5 -8 1 -9 -10 -5 -9 4 -15 3 -12 -2 4 -5 -12 -24 -34 -42 -21 -18 -37 -36 -34
-40 2 -4 -5 -10 -16 -14 -11 -4 -18 -10 -15 -15 3 -5 -4 -12 -16 -15 -17 -6
-19 -9 -8 -16 11 -7 11 -9 1 -9 -17 0 -43 -26 -35 -34 4 -3 1 -6 -6 -6 -7 0
-9 -5 -6 -10 3 -6 -1 -13 -9 -16 -9 -3 -16 -12 -16 -20 0 -7 -8 -17 -17 -23
-10 -5 -17 -12 -16 -15 5 -13 -24 -66 -32 -59 -4 5 -5 0 -2 -9 3 -10 2 -20 -2
-23 -16 -9 -52 -96 -45 -107 4 -7 3 -8 -4 -4 -8 5 -12 0 -12 -13 0 -12 -5 -21
-11 -21 -5 0 -7 -4 -4 -10 3 -5 3 -16 -2 -22 -4 -7 -8 -21 -9 -30 -1 -10 -2
-19 -4 -20 -1 -2 -3 -10 -5 -18 -18 -71 -22 -90 -18 -90 3 0 1 -6 -5 -13 -7
-8 -7 -18 -2 -27 5 -9 5 -19 -2 -27 -6 -7 -8 -13 -6 -13 3 0 2 -18 -2 -40 -4
-23 -3 -40 2 -40 5 0 6 -5 2 -12 -11 -17 -10 -78 1 -78 6 0 5 -4 -2 -8 -7 -5
-9 -21 -4 -47 4 -22 6 -55 5 -72 0 -18 2 -33 5 -33 3 0 7 -13 7 -30 1 -19 -2
-28 -10 -24 -6 3 -3 -1 6 -9 10 -8 16 -16 13 -18 -2 -3 2 -26 10 -53 8 -26 14
-51 13 -54 -1 -4 5 -20 12 -37 7 -16 14 -35 15 -40 2 -6 13 -33 26 -60 13 -28
22 -53 21 -57 -1 -5 3 -8 8 -8 6 0 10 -9 10 -20 0 -11 5 -20 10 -20 6 0 10 -7
10 -15 0 -9 6 -18 14 -21 8 -3 12 -12 9 -19 -2 -8 7 -26 21 -41 14 -15 23 -31
20 -36 -3 -4 0 -8 5 -8 6 0 11 -6 11 -14 0 -8 7 -17 16 -20 8 -3 13 -10 9 -15
-3 -5 4 -12 15 -16 11 -3 20 -13 20 -21 0 -8 4 -14 8 -14 5 0 15 -11 22 -25 8
-14 19 -24 26 -21 8 3 11 -2 9 -15 -3 -17 1 -21 21 -18 4 0 15 -12 25 -28 10
-15 19 -24 19 -20 0 5 7 2 15 -7 8 -8 15 -20 15 -26 0 -6 4 -9 9 -6 5 3 22 -7
39 -22 45 -40 60 -52 67 -52 13 0 74 -47 69 -53 -4 -4 3 -5 15 -2 11 2 21 0
21 -5 0 -11 130 -71 140 -65 4 3 11 -2 14 -11 4 -9 9 -14 12 -11 3 3 21 -1 40
-9 19 -8 36 -14 39 -14 3 0 6 0 8 -1 8 -2 97 -20 117 -23 9 -1 21 -5 28 -10 6
-4 12 -4 12 1 0 4 5 1 10 -7 6 -10 10 -11 10 -2 0 6 7 12 16 12 8 0 12 -4 9
-10 -4 -7 2 -7 19 -1 19 8 26 6 32 -7 12 -25 12 -45 0 -61 -8 -11 -8 -13 1 -8
8 5 11 -2 11 -22 -1 -19 -5 -28 -12 -24 -8 5 -8 3 0 -8 5 -8 9 -38 9 -67 -1
-29 2 -55 7 -58 5 -3 2 -15 -8 -25 -9 -10 -13 -19 -8 -19 5 0 4 -4 -1 -8 -6
-4 -18 -20 -28 -35 -10 -15 -22 -25 -27 -22 -6 4 -7 -1 -3 -11 4 -11 2 -15 -4
-11 -6 4 -13 -3 -16 -14 -3 -12 -10 -18 -16 -14 -6 3 -11 0 -11 -7 0 -10 -2
-10 -9 1 -5 7 -14 10 -20 7 -6 -4 -11 -3 -11 3 0 5 -11 8 -25 6 -14 -1 -27 1
-30 5 -3 5 -70 6 -70 0 0 -1 -15 -3 -34 -6 -19 -2 -40 -9 -47 -15 -7 -6 -18
-8 -23 -4 -7 4 -8 -1 -4 -11 4 -11 3 -15 -5 -10 -6 3 -17 -3 -25 -14 -7 -11
-16 -17 -20 -14 -3 3 -10 -4 -17 -15 -6 -12 -16 -18 -22 -15 -6 4 -8 3 -4 -4
3 -6 0 -17 -8 -25 -8 -8 -12 -17 -9 -21 4 -3 1 -6 -6 -6 -7 0 -9 -5 -6 -10 3
-6 2 -10 -3 -10 -12 0 -14 -11 -17 -107 -2 -46 0 -83 5 -83 4 0 11 -7 14 -16
3 -8 2 -12 -4 -9 -6 3 -7 -1 -4 -9 3 -9 10 -16 15 -16 5 0 9 -7 9 -15 0 -7 8
-19 18 -24 9 -6 14 -11 9 -11 -9 0 19 -28 65 -62 19 -15 38 -24 42 -21 3 4 6
1 6 -5 0 -7 13 -12 29 -12 17 0 32 -4 35 -8 6 -11 46 -9 63 1 7 5 13 4 13 -1
0 -6 15 -6 40 0 22 6 38 14 35 18 -3 5 4 6 15 3 11 -3 20 -1 20 5 0 6 8 13 18
16 20 7 88 66 75 66 -4 0 3 10 17 21 14 11 20 18 14 15 -6 -3 -3 12 8 34 11
21 20 51 22 67 1 15 6 34 10 42 6 9 5 12 -2 7 -8 -4 -10 5 -8 28 1 20 -2 32
-7 29 -6 -4 -8 5 -5 20 3 15 1 24 -3 21 -8 -5 -13 10 -10 29 0 4 -3 7 -8 7 -5
0 -8 8 -6 18 2 9 4 23 4 30 1 7 5 11 10 7 5 -3 12 3 15 13 3 9 23 35 43 57 21
21 31 35 23 31 -9 -4 -8 -2 2 7 10 8 15 17 11 20 -3 4 -1 7 6 7 7 0 10 4 6 9
-3 5 -2 12 2 14 10 6 9 89 -1 105 -4 7 -3 12 2 12 10 0 9 30 -1 47 -4 6 -3 15
3 18 8 5 7 11 -1 21 -9 11 -9 14 1 14 10 0 10 3 0 15 -9 11 -9 15 -1 15 7 0 9
5 4 13 -11 18 -13 37 -2 37 4 0 6 6 3 14 -7 19 29 39 43 25 8 -8 13 -7 17 0 4
6 14 8 24 3 21 -10 43 -9 61 2 8 5 16 4 21 -5 7 -10 11 -10 24 0 9 8 16 9 16
4 0 -11 29 -11 48 1 7 4 12 2 12 -6 0 -10 2 -10 9 1 7 11 9 11 13 0 4 -12 7
-12 21 0 14 11 17 11 17 0 0 -12 2 -12 9 0 7 11 9 11 13 0 4 -12 7 -12 21 0
11 9 17 10 17 2 0 -6 3 -10 8 -10 42 7 49 -1 47 -54 0 -29 -5 -59 -10 -66 -5
-9 -4 -12 3 -7 14 8 11 -56 -3 -66 -6 -5 -5 -8 3 -8 6 0 12 -5 12 -11 0 -5 -5
-7 -12 -3 -7 5 -8 3 -2 -7 12 -20 12 -129 -1 -129 -6 0 -5 -3 1 -8 14 -9 13
-64 -1 -74 -6 -5 -5 -8 3 -8 6 0 12 -5 12 -11 0 -5 -6 -7 -12 -3 -10 6 -10 4
-2 -7 12 -17 12 -98 0 -118 -6 -9 -5 -12 1 -8 11 7 11 -78 0 -89 -3 -4 -2 -14
2 -23 11 -20 8 -101 -4 -120 -5 -9 -4 -12 3 -7 7 4 10 -1 9 -14 -1 -11 -6 -20
-12 -20 -7 0 -7 -3 1 -8 10 -7 14 -121 4 -120 -20 2 -30 -4 -24 -14 4 -7 3 -8
-5 -4 -6 4 -18 2 -26 -4 -8 -6 -20 -8 -26 -4 -7 4 -9 3 -6 -3 4 -6 -7 -16 -23
-23 -16 -7 -29 -15 -28 -19 2 -16 -3 -31 -10 -28 -4 1 -9 -2 -12 -8 -2 -5 -11
-18 -20 -28 -8 -10 -15 -21 -15 -25 -1 -4 -6 -17 -13 -28 -6 -12 -9 -24 -6
-27 3 -3 2 -12 -2 -19 -12 -18 -11 -148 0 -140 5 3 7 -2 3 -10 -3 -9 0 -21 6
-27 6 -6 7 -11 2 -11 -5 0 0 -7 11 -16 10 -8 12 -12 4 -8 -10 5 -9 0 4 -14 11
-12 15 -22 10 -22 -5 0 5 -9 21 -20 17 -11 24 -20 16 -20 -8 0 3 -11 23 -25
20 -14 41 -25 46 -25 6 0 10 -5 10 -11 0 -5 5 -7 10 -4 6 3 10 1 10 -4 0 -6 3
-10 8 -9 4 1 23 -2 42 -6 48 -10 150 -13 150 -5 0 4 15 10 33 13 19 3 42 14
53 24 11 10 26 16 33 14 8 -3 11 0 8 5 -4 6 9 23 28 38 18 16 32 32 29 36 -2
4 3 10 12 13 8 3 12 10 9 16 -3 5 -1 10 5 10 6 0 9 4 5 9 -3 5 0 15 7 23 7 7
13 22 12 33 0 11 3 30 8 43 5 14 4 22 -3 22 -8 0 -7 5 1 15 8 10 9 15 2 15 -8
0 -8 8 -3 22 8 22 -3 55 -24 70 -6 5 -4 8 4 8 11 0 9 4 -5 15 -10 8 -15 15
-11 15 5 0 1 7 -7 16 -9 8 -16 23 -16 32 0 13 -2 14 -9 4 -6 -10 -10 -9 -14 7
-3 12 -13 21 -22 21 -9 0 -14 3 -12 8 3 4 -1 13 -9 20 -8 7 -14 10 -14 6 0 -4
-8 1 -19 10 -10 9 -28 18 -40 19 -28 2 -30 13 -29 144 0 61 -3 116 -6 122 -4
6 -3 11 1 11 10 0 9 53 -2 69 -3 6 -2 11 2 11 10 0 9 53 -2 69 -3 6 -2 11 2
11 10 0 9 53 -2 69 -3 6 -3 11 2 11 9 0 8 323 -1 346 -3 8 0 14 7 14 8 0 6 4
-3 10 -8 5 -10 10 -4 10 6 0 10 21 10 52 -1 52 0 53 27 51 18 -1 25 2 21 9 -4
7 -3 8 5 4 17 -11 91 -14 85 -4 -3 4 -1 8 5 8 5 0 11 -6 14 -12 3 -10 7 -10
20 1 14 11 17 11 17 0 0 -12 2 -12 9 0 7 11 9 11 13 0 4 -12 7 -12 21 0 14 11
17 11 17 0 0 -12 2 -12 9 0 7 11 9 11 13 0 4 -11 8 -12 20 -2 8 7 18 10 22 6
10 -10 66 -11 60 -1 -3 4 0 8 5 8 6 0 11 -4 11 -9 0 -5 15 -8 33 -6 l32 3 0
-208 c0 -115 -3 -206 -7 -203 -5 2 -8 -4 -8 -13 0 -10 -3 -15 -6 -11 -3 3 -15
-3 -27 -13 -11 -11 -25 -17 -30 -13 -6 3 -7 1 -3 -5 4 -7 2 -12 -4 -12 -15 0
-81 -70 -75 -80 3 -5 0 -10 -6 -12 -16 -5 4 -64 20 -61 6 2 11 -2 11 -7 0 -7
6 -7 18 -1 10 5 24 6 31 1 26 -15 74 10 130 69 80 84 98 106 81 96 -12 -7 -13
-6 -4 6 7 9 10 89 10 232 -1 119 3 217 7 217 5 0 5 4 2 10 -3 5 4 10 17 10 13
0 30 0 38 0 8 0 39 -1 68 -3 28 -2 52 0 52 5 0 5 5 6 12 2 6 -4 32 -8 57 -9
25 -2 48 -3 51 -4 10 -2 5 -101 -5 -101 -7 0 -7 -3 0 -8 6 -4 10 -55 10 -117
0 -62 -4 -113 -10 -117 -7 -5 -7 -8 0 -8 10 0 11 -70 1 -96 -2 -6 -2 -15 1
-18 9 -8 10 -146 1 -146 -3 0 -4 -8 -2 -17 3 -11 -4 -24 -16 -33 -12 -8 -31
-23 -42 -32 -12 -10 -25 -18 -30 -18 -5 0 -6 -5 -3 -10 3 -6 2 -10 -4 -10 -5
0 -25 -14 -43 -30 -18 -16 -38 -30 -46 -30 -7 0 -10 -4 -7 -10 3 -5 2 -10 -3
-10 -5 0 -30 -20 -56 -45 -25 -25 -46 -42 -46 -38 0 4 -11 -8 -24 -26 -14 -18
-22 -39 -19 -47 3 -8 -1 -14 -8 -14 -11 0 -11 -2 1 -10 8 -5 11 -12 8 -16 -15
-14 43 -52 77 -49 36 4 85 29 91 47 3 10 9 17 13 15 4 -1 22 14 40 33 19 19
30 28 27 20 -4 -8 2 -3 14 13 12 15 27 24 32 21 6 -4 8 -3 5 3 -6 10 43 60 53
54 3 -2 11 7 17 20 7 13 13 21 13 16 0 -4 16 7 36 25 20 18 42 32 48 30 6 -2
8 0 3 4 -4 4 1 16 10 26 9 11 19 27 21 36 5 26 3 93 -4 103 -3 5 -2 9 3 9 12
0 10 224 -2 232 -7 5 -7 8 0 8 11 0 12 276 2 304 -4 9 -2 16 4 16 6 0 8 4 5 8
-2 4 4 13 15 20 10 7 19 8 19 4 0 -10 30 -9 48 2 7 4 12 2 12 -6 0 -10 2 -10
9 1 7 11 9 11 13 0 4 -12 7 -12 21 0 14 11 17 11 17 0 0 -12 2 -12 9 0 7 11 9
11 13 0 4 -12 7 -12 21 0 10 7 17 9 17 4 0 -11 29 -11 48 1 6 4 12 3 12 -3 0
-5 8 -8 18 -6 14 2 18 -2 17 -18 -1 -12 2 -28 8 -34 5 -7 6 -13 1 -13 -13 0
-11 -413 1 -422 7 -5 7 -8 0 -8 -5 0 -10 -13 -10 -30 0 -16 5 -30 10 -30 6 0
3 -5 -5 -11 -11 -8 -12 -12 -2 -16 6 -2 9 -9 6 -15 -10 -16 -10 -188 0 -188 5
0 3 -7 -4 -15 -10 -12 -10 -15 1 -15 9 0 10 -3 4 -8 -5 -4 -10 -14 -10 -22 0
-8 5 -18 10 -22 7 -5 7 -8 0 -8 -10 0 -10 -92 -1 -117 3 -6 1 -13 -4 -15 -6
-2 -3 -16 5 -31 10 -19 10 -26 2 -21 -7 3 2 -5 18 -19 29 -24 80 -43 69 -26
-3 5 1 9 8 9 15 0 41 29 46 50 6 27 4 189 -3 199 -3 6 -2 11 3 11 10 0 9 36
-1 46 -4 4 -2 13 4 21 9 10 8 13 0 13 -7 0 -9 5 -6 11 9 14 10 223 1 237 -4 7
-4 12 1 12 4 0 8 111 8 248 0 213 2 247 15 247 8 0 20 3 25 7 6 4 17 3 25 -2
8 -5 22 -5 32 1 12 7 18 6 18 -1 0 -7 7 -7 21 1 16 8 20 8 14 -1 -6 -9 -3 -9
13 -1 15 8 21 8 24 -1 3 -8 9 -8 24 0 12 6 26 7 34 2 8 -5 21 -5 31 1 14 7 22
4 33 -13 10 -14 12 -26 6 -32 -6 -6 -5 -16 1 -28 5 -10 6 -18 2 -18 -4 0 -8
-50 -8 -110 0 -61 4 -110 8 -110 5 0 5 -5 2 -10 -12 -19 -12 -130 -1 -130 7 0
8 -3 1 -8 -13 -9 -14 -185 0 -194 7 -5 7 -8 -1 -8 -6 0 -11 -7 -11 -15 0 -8 5
-15 10 -15 5 0 4 -7 -3 -15 -9 -10 -9 -15 -1 -15 6 0 11 -5 11 -10 0 -15 47
-60 54 -53 3 4 6 0 6 -9 0 -8 11 -21 25 -28 14 -7 23 -15 20 -18 -4 -5 20 -32
29 -32 10 0 51 -45 49 -52 -2 -5 3 -8 10 -8 7 0 19 -9 27 -20 8 -11 18 -20 23
-20 13 0 37 -27 30 -34 -4 -3 -1 -6 6 -6 7 0 19 -7 27 -15 9 -8 12 -15 8 -15
-3 0 -1 -7 6 -15 7 -8 9 -15 4 -15 -7 0 -10 -108 -4 -130 1 -3 1 -42 1 -88 -2
-89 -15 -126 -44 -118 -9 2 -15 0 -11 -5 3 -5 1 -9 -4 -9 -5 0 -21 -11 -36
-25 -15 -14 -25 -25 -22 -25 4 0 -3 -9 -14 -20 -19 -19 -48 -79 -53 -110 -2
-8 -6 -20 -10 -27 -4 -6 -3 -15 3 -18 8 -5 8 -11 0 -20 -8 -10 -8 -15 0 -20 6
-4 9 -20 6 -36 -2 -16 0 -29 5 -29 6 0 8 -4 5 -9 -4 -5 -1 -11 4 -13 6 -2 12
-13 13 -25 0 -12 5 -19 9 -17 4 3 8 -1 8 -9 0 -8 7 -20 15 -27 8 -7 12 -17 8
-23 -3 -5 -1 -7 5 -3 6 3 24 -7 40 -24 17 -16 37 -30 45 -30 9 0 17 -5 19 -12
2 -6 18 -11 36 -11 18 0 32 -3 32 -6 0 -3 18 -7 40 -7 22 -1 37 3 33 9 -3 5 4
4 16 -2 14 -8 21 -8 21 -1 0 5 3 9 8 8 12 -4 76 25 96 44 10 9 23 15 28 12 4
-3 8 0 8 6 0 16 26 40 35 32 4 -4 6 0 3 8 -3 8 4 23 15 32 11 10 17 18 12 18
-4 0 -2 7 5 15 7 8 9 15 5 15 -4 0 -2 7 5 15 7 8 9 15 5 15 -4 0 -3 6 2 13 5
6 8 23 7 37 -1 14 3 28 10 32 8 6 8 8 0 8 -6 0 -12 11 -13 25 -3 48 -4 55 -13
55 -4 0 -8 9 -8 20 0 11 -4 20 -10 20 -5 0 -10 6 -10 14 0 7 -7 19 -15 26 -8
7 -12 17 -8 23 3 5 1 7 -4 4 -6 -4 -14 0 -17 9 -4 9 -9 14 -12 11 -3 -3 -16 5
-28 17 -11 13 -25 25 -31 26 -23 6 -41 12 -62 23 -23 10 -23 13 -23 209 0 125
-4 198 -10 198 -5 0 -9 3 -9 8 3 20 -3 32 -17 32 -8 0 -13 4 -10 9 3 5 -9 16
-27 25 -17 8 -26 16 -19 16 10 0 10 3 -2 15 -8 8 -18 15 -23 15 -4 0 -14 9
-21 20 -7 11 -20 20 -29 20 -9 0 -13 3 -10 6 7 8 -31 44 -45 44 -5 0 -6 5 -2
12 5 7 2 9 -9 5 -11 -4 -14 -2 -10 9 3 7 0 14 -5 14 -6 0 -23 12 -39 27 -15
16 -31 27 -36 25 -5 -1 -6 2 -2 8 3 5 2 10 -2 10 -9 0 -7 114 2 138 3 7 0 10
-5 7 -12 -8 -12 -3 0 29 6 17 6 26 0 26 -12 0 -9 22 5 32 7 5 7 8 0 8 -6 0 -9
60 -8 162 3 205 5 247 12 246 3 0 11 1 16 2 25 6 41 4 47 -4 4 -6 13 -4 22 3
13 11 16 11 16 0 0 -12 2 -12 9 0 7 11 9 11 13 0 4 -12 7 -12 21 0 14 11 17
11 17 0 0 -12 2 -12 9 0 7 11 9 11 13 0 4 -12 7 -12 21 0 10 7 17 9 17 4 0
-10 41 -10 58 1 7 4 12 3 12 -3 0 -6 6 -8 14 -5 9 3 15 -4 18 -20 3 -15 1 -26
-6 -26 -7 0 -7 -3 -1 -8 12 -9 13 -65 1 -73 -5 -4 -5 -13 0 -20 6 -11 9 -113
3 -146 -1 -4 0 -12 1 -18 1 -5 1 -47 1 -92 -1 -48 2 -83 8 -83 5 0 13 -9 16
-20 4 -11 10 -18 15 -15 4 3 13 -2 20 -10 7 -8 9 -15 4 -16 -5 0 1 -4 14 -9
12 -5 22 -16 22 -24 0 -8 9 -18 20 -21 11 -3 20 -11 20 -17 0 -5 7 -8 15 -5 8
4 17 1 21 -5 5 -7 2 -8 -6 -3 -9 5 -11 4 -6 -3 5 -8 13 -9 25 -3 9 5 23 6 31
1 36 -22 82 10 77 54 -3 28 -26 82 -27 64 0 -4 -9 0 -19 9 -11 9 -17 21 -14
27 3 6 3 8 -2 4 -4 -4 -14 0 -22 10 -10 11 -12 12 -8 2 4 -10 2 -9 -8 3 -8 9
-18 17 -22 17 -4 0 -14 8 -22 18 -9 10 -12 11 -7 2 6 -12 5 -13 -7 -2 -11 10
-14 57 -15 223 -1 186 1 210 15 208 9 -1 18 0 21 1 21 8 40 6 40 -3 0 -7 5 -5
10 3 5 8 10 10 10 3 0 -12 17 -12 38 0 6 5 12 4 12 -1 0 -5 7 -9 15 -9 8 0 15
4 15 8 0 4 13 4 28 -1 16 -4 36 -4 45 2 10 5 17 5 17 0 0 -5 7 -9 15 -9 8 0
15 4 15 8 0 10 34 6 42 -5 4 -6 13 -4 22 3 9 8 16 9 16 4 0 -10 47 -9 57 1 4
3 12 1 20 -5 9 -8 13 -8 13 0 0 6 9 3 20 -6 11 -9 16 -20 12 -23 -9 -7 -8
-122 1 -137 5 -7 5 -13 0 -13 -9 0 -8 -204 2 -219 3 -6 3 -11 -2 -11 -4 0 -8
-20 -8 -45 0 -25 4 -45 8 -45 5 0 5 -6 0 -12 -8 -15 -7 -93 2 -108 3 -6 2 -10
-3 -10 -5 0 -8 -11 -7 -25 3 -22 -5 -30 -27 -26 -5 0 -8 -4 -8 -10 0 -5 -4 -7
-10 -4 -5 3 -10 2 -10 -3 0 -5 -9 -12 -21 -15 -13 -4 -18 -10 -13 -18 4 -8 3
-10 -4 -5 -7 4 -12 2 -12 -4 0 -6 -4 -8 -10 -5 -5 3 -10 -1 -10 -10 0 -8 -10
-20 -22 -25 -13 -5 -17 -9 -11 -9 8 -1 4 -11 -9 -26 -12 -14 -23 -35 -25 -47
-2 -12 -8 -27 -14 -35 -6 -7 -8 -13 -5 -13 4 0 2 -9 -4 -19 -5 -11 -6 -22 -2
-25 4 -2 7 -25 6 -50 -1 -27 3 -46 9 -46 6 0 8 -3 4 -6 -3 -4 0 -19 8 -34 8
-15 11 -30 8 -34 -4 -3 -1 -6 6 -6 7 0 10 -3 8 -7 -6 -11 30 -43 39 -35 4 4 4
-1 1 -10 -4 -11 0 -19 14 -23 10 -4 19 -13 19 -21 0 -8 5 -12 10 -9 6 3 10 2
10 -3 0 -10 63 -40 100 -47 54 -11 120 -12 120 -3 0 6 7 7 16 4 9 -4 23 -1 30
5 8 6 14 9 14 5 0 -3 18 4 40 15 22 12 40 25 40 31 0 5 3 7 8 5 4 -2 19 9 34
24 15 16 24 29 21 29 -3 0 4 9 17 20 15 13 18 20 9 20 -8 0 -10 3 -4 8 18 13
36 56 38 92 1 19 6 41 10 48 5 6 4 12 -2 12 -5 0 -8 11 -5 25 2 14 0 25 -5 25
-6 0 -8 7 -5 15 4 8 1 21 -5 29 -6 7 -8 16 -4 19 3 4 1 7 -6 7 -7 0 -11 6 -8
13 3 8 -3 20 -13 27 -11 8 -17 17 -15 20 3 4 -9 18 -25 30 -17 13 -30 30 -30
38 0 9 -3 12 -7 9 -3 -4 -21 3 -39 14 -19 11 -38 18 -43 15 -5 -4 -12 -2 -16
4 -4 6 -10 8 -13 6 -4 -2 -7 19 -7 47 0 29 -3 58 -8 65 -6 7 -6 12 0 12 9 0 8
74 -2 90 -3 6 -3 10 2 10 4 0 6 36 3 81 -3 44 -2 89 2 100 5 12 3 19 -5 19 -8
0 -6 4 3 10 8 5 10 10 5 10 -6 0 -11 9 -11 20 0 11 3 20 6 20 3 0 3 32 0 70
-3 39 -2 70 1 70 4 0 5 9 2 19 -3 14 2 21 19 27 12 4 28 7 33 5 25 -8 54 -7
49 0 -3 5 -1 9 5 9 5 0 11 -5 13 -11 3 -9 9 -9 24 -1 13 7 25 7 37 1 10 -6 17
-6 17 -1 0 12 33 10 42 -2 4 -6 13 -4 22 3 15 12 20 8 17 -11 0 -5 3 -8 8 -8
6 0 6 -12 1 -30 -5 -16 -5 -30 -1 -30 3 0 7 -9 7 -20 0 -11 -5 -20 -10 -20 -6
0 -5 -5 1 -11 7 -7 8 -21 3 -39 -5 -16 -4 -32 2 -38 6 -6 6 -12 -1 -16 -7 -4
-7 -15 -1 -31 5 -13 6 -27 1 -29 -13 -8 -1 -59 17 -73 9 -7 12 -13 6 -13 -5 0
4 -9 20 -19 17 -11 33 -18 38 -15 4 3 8 -2 8 -10 0 -9 7 -16 15 -16 8 0 15 -5
15 -11 0 -6 7 -8 16 -5 8 3 12 2 9 -3 -3 -5 4 -12 15 -16 11 -3 20 -11 20 -16
0 -5 3 -8 8 -7 12 3 62 -24 62 -34 0 -4 7 -8 15 -8 8 0 15 -4 15 -9 0 -5 9
-13 21 -16 17 -6 20 -12 15 -33 -4 -15 -8 -36 -9 -47 -2 -11 -6 -25 -10 -32
-4 -6 -3 -15 3 -18 8 -5 7 -11 -1 -21 -9 -11 -9 -14 1 -14 8 0 10 -3 7 -6 -3
-4 -2 -15 4 -25 7 -14 6 -19 -3 -19 -10 -1 -9 -4 2 -13 15 -12 22 -30 23 -54
0 -7 4 -10 9 -7 4 3 8 1 8 -3 0 -14 66 -83 79 -83 6 0 11 -8 11 -17 0 -15 2
-16 10 -3 8 13 14 8 12 -10 0 -3 7 -6 16 -6 9 -1 33 -5 52 -9 62 -14 139 -9
152 10 5 6 8 4 8 -4 0 -11 4 -10 16 5 8 10 13 12 9 4 -4 -10 -2 -9 8 3 8 9 19
17 25 17 5 0 12 7 16 15 3 8 10 15 16 15 14 0 50 37 43 44 -3 3 2 8 11 12 9 3
13 10 10 15 -3 5 -1 9 5 9 9 0 27 56 23 73 -1 4 2 7 8 7 5 0 8 20 6 45 -2 31
0 42 8 38 6 -4 5 1 -3 10 -7 9 -10 17 -5 17 5 0 2 5 -6 10 -13 9 -13 10 0 10
12 0 12 2 2 9 -7 4 -14 18 -15 29 -1 12 -4 22 -7 22 -4 0 -12 16 -20 35 -7 19
-16 33 -18 30 -3 -3 -20 10 -37 28 -18 17 -39 33 -46 35 -8 2 -21 9 -29 16 -8
7 -25 11 -37 10 -13 0 -23 4 -23 10 0 6 -5 4 -10 -4 -5 -8 -10 -10 -10 -5 0 6
-22 10 -50 10 -27 0 -50 -3 -50 -6 0 -4 -16 -10 -35 -13 -20 -4 -33 -11 -31
-15 3 -5 -11 -7 -32 -5 -20 1 -38 7 -40 13 -2 6 -10 11 -18 11 -8 0 -14 3 -14
8 0 4 -18 18 -40 31 -21 14 -37 28 -34 33 3 4 -1 6 -8 3 -7 -3 -28 9 -47 25
-18 16 -36 28 -40 26 -3 -2 -12 2 -19 10 -7 8 -10 14 -8 14 3 0 2 10 -3 23 -6
14 -5 30 1 41 8 13 7 21 -3 26 -10 7 -10 12 -1 23 7 7 9 16 7 19 -10 10 -14
48 -5 48 6 0 6 9 1 23 -11 29 0 55 22 51 9 -1 17 3 17 9 0 7 5 5 10 -3 9 -13
10 -13 10 0 0 13 1 13 10 0 9 -13 10 -13 10 0 0 9 3 11 8 5 8 -12 22 -13 40
-2 7 5 12 4 12 -3 0 -6 5 -8 13 -3 18 11 36 12 43 2 3 -5 10 -6 16 -3 6 4 23
8 37 10 14 1 26 3 26 4 0 1 16 3 36 5 20 1 45 7 55 13 10 5 25 7 32 5 7 -3 18
-1 25 5 7 5 20 8 30 7 9 -2 17 1 17 7 0 6 7 8 15 4 8 -3 15 -1 15 5 0 6 5 7
10 4 6 -3 10 -2 10 3 0 5 7 9 15 10 8 1 22 3 30 4 8 1 15 5 15 10 0 4 3 7 8 6
4 -1 21 5 37 12 17 7 33 13 38 12 4 -1 7 3 7 8 0 6 6 10 14 10 7 0 19 7 26 15
6 8 15 14 18 13 10 -2 69 33 100 60 15 12 35 25 45 28 9 3 17 10 17 15 0 5 7
9 16 9 9 0 12 5 8 12 -5 8 -2 9 9 5 9 -3 19 -1 23 5 5 7 2 8 -7 3 -8 -5 2 7
21 26 19 19 38 33 42 32 4 -2 9 6 13 17 3 11 9 19 13 17 4 -1 7 0 8 3 0 3 20
26 45 52 49 53 80 94 78 104 0 4 6 11 15 16 9 5 14 13 11 19 -4 5 -1 9 4 9 6
0 11 7 11 16 0 8 5 12 10 9 9 -6 14 8 11 28 0 4 4 7 9 7 6 0 10 7 10 17 0 9
12 32 27 51 15 20 20 32 13 27 -8 -5 -4 6 9 23 15 22 18 32 9 32 -9 0 -10 3
-2 8 6 4 14 17 18 30 4 12 11 20 16 17 4 -3 6 4 3 15 -3 11 -1 26 5 33 6 6 12
26 15 43 3 17 9 40 15 50 5 11 7 24 5 31 -2 6 1 14 6 18 8 4 8 12 0 27 -7 13
-7 18 -1 14 6 -4 11 1 10 11 -1 25 11 103 17 113 3 5 1 11 -5 15 -6 4 -7 11
-4 17 8 13 9 102 0 116 -3 6 -2 13 4 17 6 4 8 11 4 16 -6 11 -13 55 -16 109
-1 19 -4 39 -7 45 -2 5 -6 18 -8 30 -3 25 -11 60 -13 60 -3 0 -12 39 -13 58
-1 9 -4 17 -7 17 -3 0 -7 10 -7 22 -1 13 -7 24 -13 26 -5 2 -10 11 -10 21 0 9
-6 23 -12 30 -11 11 -10 12 2 6 10 -5 8 -1 -4 13 -11 12 -16 25 -13 29 4 3 -1
12 -11 20 -11 10 -12 12 -2 8 12 -5 12 -4 -1 7 -15 13 -29 40 -35 66 -1 7 -12
22 -24 32 -12 10 -20 21 -18 23 2 3 -6 16 -17 29 -11 14 -21 31 -23 39 -2 8
-12 20 -22 28 -11 7 -20 19 -20 26 0 7 -7 15 -15 19 -8 3 -15 12 -15 20 0 10
-6 13 -15 9 -10 -3 -15 0 -13 8 2 8 -3 13 -10 11 -8 -1 -11 2 -8 7 3 5 -2 17
-12 28 -9 10 -13 12 -8 3 5 -8 -5 0 -21 17 -17 18 -32 31 -34 30 -2 -1 -3 0
-1 2 4 8 -41 51 -55 51 -7 0 -13 5 -13 10 0 6 -6 10 -14 10 -8 0 -17 7 -20 16
-4 9 -9 14 -13 11 -3 -4 -13 1 -22 11 -9 10 -29 23 -44 30 -15 7 -25 17 -22
22 4 6 3 10 -2 9 -4 -1 -11 0 -15 1 -5 1 -11 3 -15 4 -28 8 -61 31 -56 39 3 5
-3 6 -16 2 -12 -4 -21 -2 -21 4 0 6 -6 10 -12 8 -7 -1 -12 3 -11 9 1 6 -5 11
-13 12 -8 1 -21 3 -29 4 -8 1 -15 5 -15 10 0 4 -5 8 -11 8 -5 0 -7 -6 -4 -12
4 -7 0 -5 -8 4 -8 10 -17 15 -20 11 -4 -3 -7 -1 -7 6 0 7 -4 10 -9 6 -10 -6
-7 27 4 44 3 5 2 12 -2 14 -11 7 -9 379 2 396 5 9 4 12 -2 8 -6 -4 -10 4 -10
18 0 14 4 25 9 25 5 0 6 5 2 11 -10 16 -12 109 -2 103 4 -3 5 1 2 9 -6 16 22
31 38 20 6 -3 8 -1 5 4 -7 11 51 40 68 35 5 -2 7 -1 3 3 -8 8 27 45 43 45 5 0
8 4 4 9 -3 5 -1 12 5 16 6 4 8 10 5 15 -3 4 2 11 11 14 8 3 13 10 10 15 -4 5
-1 11 4 13 6 2 14 19 18 38 10 52 6 181 -5 189 -5 3 -13 19 -17 35 -4 17 -24
46 -44 65 -20 19 -36 38 -34 43 1 4 -4 8 -12 8 -8 0 -21 6 -28 13 -13 11 -26
16 -57 21 -8 2 -17 8 -19 14 -2 7 -8 12 -13 12 -6 0 -7 -6 -3 -12 6 -10 4 -10
-8 0 -8 7 -23 9 -33 6 -10 -4 -21 -1 -26 7 -6 11 -9 11 -9 1 0 -10 -5 -10 -21
-1 -17 9 -20 8 -14 -2 6 -9 2 -11 -13 -7 -12 4 -22 2 -22 -4 0 -5 -4 -7 -9 -3
-5 3 -12 1 -16 -5 -4 -6 -11 -8 -16 -5 -5 4 -9 1 -9 -5 0 -6 -4 -9 -9 -6 -5 4
-11 3 -13 -1 -1 -5 -16 -16 -33 -25 -16 -10 -29 -22 -27 -28 1 -5 -5 -10 -15
-10 -9 0 -14 -3 -10 -6 3 -3 -4 -16 -17 -28 -12 -11 -21 -28 -21 -36 0 -8 -4
-18 -9 -22 -10 -6 -15 -25 -19 -63 -1 -11 -6 -23 -12 -27 -6 -5 -5 -8 2 -8 13
0 13 -26 0 -47 -5 -7 -4 -13 2 -13 5 0 8 -9 6 -20 -2 -11 1 -20 7 -20 5 0 8
-7 4 -15 -3 -8 -1 -15 4 -15 6 0 10 -9 10 -19 0 -11 4 -21 9 -23 5 -1 11 -9
13 -17 4 -20 31 -49 41 -44 4 2 7 -2 7 -11 0 -8 14 -20 30 -28 17 -7 30 -17
30 -21 0 -5 4 -6 9 -3 12 8 66 -44 55 -52 -13 -10 -16 -32 -4 -32 6 0 6 -9 1
-22 -5 -13 -5 -33 0 -45 5 -13 5 -23 1 -23 -4 0 -5 -63 -2 -141 3 -78 2 -143
-2 -145 -4 -3 -3 -16 2 -29 6 -17 6 -25 -1 -25 -6 0 -7 -6 -3 -12 10 -16 13
-48 4 -48 -4 0 -6 -10 -6 -22 1 -20 -4 -23 -41 -24 -24 0 -43 2 -43 5 0 4 -63
7 -140 7 -76 0 -138 -2 -135 -5 2 -4 -17 -6 -41 -5 -25 1 -47 -3 -50 -8 -3 -4
-9 -6 -14 -3 -5 3 -20 1 -34 -5 -18 -6 -26 -6 -26 1 0 6 -4 8 -10 4 -8 -5 -30
55 -29 79 0 5 -4 12 -11 16 -6 4 -12 17 -13 28 -1 12 -4 22 -8 22 -4 0 -10 14
-14 30 -4 17 -11 30 -17 30 -6 0 -8 3 -5 7 4 3 -1 12 -11 20 -9 8 -11 12 -5 8
9 -4 11 -1 7 9 -3 9 -10 16 -14 16 -4 0 -11 11 -14 25 -4 14 -11 23 -16 20 -6
-3 -7 1 -4 9 4 11 0 16 -12 16 -16 0 -17 2 -4 10 8 5 10 10 3 10 -6 0 -15 12
-21 28 -5 15 -21 40 -36 55 -14 15 -26 35 -26 43 0 8 -4 12 -10 9 -5 -3 -10
-1 -10 4 0 23 -2 26 -20 36 -18 10 -20 13 -20 36 0 5 -4 7 -10 4 -5 -3 -10 -2
-10 3 0 4 -13 24 -30 42 -16 18 -30 38 -30 42 0 5 -4 6 -10 3 -5 -3 -10 1 -10
9 0 9 -6 16 -14 16 -8 0 -18 5 -22 12 -5 7 -2 8 7 3 8 -4 3 3 -11 17 -14 13
-28 23 -32 21 -5 -2 -8 3 -8 12 0 9 -4 13 -10 10 -9 -6 -14 8 -11 28 0 4 -4 7
-10 7 -8 0 -8 4 0 14 9 11 9 15 -1 18 -10 4 -10 8 1 21 10 13 10 17 1 17 -10
0 -10 3 0 15 7 9 8 15 2 15 -11 0 -11 18 1 37 4 6 3 14 -3 18 -6 4 -7 11 -3
18 10 17 10 57 0 57 -5 0 -4 7 3 15 10 12 10 15 0 15 -10 0 -10 3 0 15 10 12
10 15 0 15 -10 0 -10 3 0 15 10 12 10 15 0 15 -10 0 -10 3 0 15 7 8 8 15 3 15
-8 0 -10 32 -3 50 1 3 2 7 2 10 0 3 6 11 14 18 8 7 14 11 14 9 0 -2 24 19 53
47 29 28 52 53 51 56 0 3 7 13 18 23 10 9 18 14 18 11 0 -3 8 2 18 13 17 19
18 19 59 -3 23 -12 40 -23 38 -26 -4 -4 13 -7 70 -10 19 -1 35 -5 35 -9 0 -9
27 -6 36 4 12 12 26 8 18 -5 -6 -10 -5 -10 8 -1 8 7 18 10 21 6 4 -3 7 -2 7 3
0 5 10 10 22 11 11 1 24 7 28 14 5 7 14 8 21 4 8 -5 11 -5 7 0 -10 10 19 38
32 30 5 -3 10 1 10 9 0 9 5 16 10 16 6 0 10 7 10 16 0 8 4 13 9 9 5 -3 12 4
16 15 4 11 11 17 17 14 7 -4 8 -2 4 5 -4 6 -2 18 4 26 7 8 9 15 5 15 -4 0 -2
6 4 13 11 14 21 123 12 133 -3 3 -6 11 -6 17 -1 31 -18 77 -26 72 -5 -4 -6 0
-4 7 3 8 -6 25 -19 37 -14 13 -23 28 -20 32 3 5 -2 9 -10 9 -9 0 -16 5 -16 11
0 5 -4 8 -9 5 -5 -3 -11 1 -15 9 -3 8 -12 15 -21 15 -8 0 -15 5 -15 11 0 5 -4
8 -9 5 -5 -3 -14 1 -21 9 -7 8 -24 13 -41 11 -16 -2 -29 -1 -29 3 0 10 -113 2
-124 -9 -6 -6 -16 -10 -24 -10 -8 0 -21 -8 -29 -17 -8 -10 -11 -12 -8 -5 6 11
3 11 -14 0 -12 -7 -21 -16 -21 -20 0 -5 -7 -8 -16 -8 -8 0 -13 -4 -9 -9 3 -6
-4 -15 -15 -21 -11 -6 -20 -17 -20 -25 0 -8 -8 -19 -17 -24 -10 -6 -14 -11 -9
-11 5 0 4 -6 -2 -13 -20 -24 -37 -173 -21 -183 4 -2 6 -10 5 -18 -2 -16 -128
-141 -138 -138 -5 1 -8 -4 -8 -12 0 -8 -9 -18 -20 -21 -11 -4 -18 -9 -16 -13
2 -4 -2 -13 -10 -20 -8 -7 -14 -10 -14 -7 0 3 -11 -5 -25 -19 -14 -14 -25 -29
-24 -32 0 -4 -5 -11 -13 -15 -9 -6 -9 -9 -1 -9 8 0 9 -9 3 -30 -5 -18 -5 -32
1 -36 6 -4 6 -11 -2 -20 -9 -11 -9 -14 1 -14 10 0 10 -3 0 -15 -10 -12 -10
-15 0 -15 10 0 10 -3 0 -15 -8 -10 -9 -15 -2 -15 6 0 9 -7 6 -15 -9 -23 -10
-125 -1 -125 4 0 3 -8 -2 -19 -6 -10 -7 -21 -3 -25 3 -4 -1 -4 -11 0 -9 3 -17
10 -17 15 0 5 -3 8 -7 8 -19 -3 -34 2 -29 9 3 5 -11 14 -30 21 -18 7 -34 17
-34 22 0 5 -7 9 -15 9 -8 0 -15 5 -15 11 0 5 -5 7 -11 3 -6 -3 -14 -2 -18 3
-8 13 -109 63 -126 63 -7 0 -15 4 -17 10 -2 8 -29 16 -61 19 -5 1 -6 5 -3 10
4 5 -3 7 -14 4 -11 -3 -20 0 -20 6 0 6 -3 10 -7 10 -24 -4 -53 3 -65 14 -7 7
-23 12 -35 11 -13 -1 -23 2 -23 6 0 4 -11 6 -25 5 -14 -2 -25 0 -25 5 0 4 -9
6 -20 3 -12 -3 -20 0 -20 7 0 7 -6 10 -14 7 -10 -4 -14 0 -11 14 2 10 -2 19
-8 19 -8 0 -8 3 -2 8 16 11 17 34 3 43 -11 7 -11 9 0 9 7 0 11 4 8 8 -11 18
-14 62 -5 67 5 4 5 13 0 24 -6 10 -6 23 -1 31 5 9 5 19 -2 27 -6 8 -6 13 -1
13 5 0 10 7 10 15 0 8 -4 15 -9 15 -5 0 -6 5 -3 11 10 14 12 80 4 85 -4 2 -3
20 1 39 4 20 4 38 -1 41 -5 3 -7 9 -4 14 3 5 6 25 7 45 1 19 5 35 10 35 4 0 7
3 7 8 -3 19 2 33 11 27 6 -3 13 1 16 9 3 8 15 18 26 22 16 5 18 8 7 15 -12 7
-11 9 1 9 9 0 27 12 42 28 45 47 59 56 68 43 4 -7 10 -12 14 -12 3 1 7 1 9 0
40 -12 147 -18 147 -7 0 4 9 5 20 3 11 -2 20 0 20 6 0 5 7 9 15 9 8 0 15 5 15
10 0 6 5 10 11 10 13 0 85 72 81 83 -1 4 3 7 9 7 5 0 8 4 4 9 -3 5 1 16 9 24
8 8 13 17 10 20 -4 3 -2 12 2 19 12 19 13 78 1 78 -5 0 -4 7 3 15 9 10 9 15 1
15 -6 0 -11 11 -11 25 0 14 -4 25 -10 25 -5 0 -10 7 -10 16 0 8 -4 13 -9 9 -6
-3 -8 4 -6 15 2 11 1 19 -3 17 -10 -5 -42 30 -35 37 4 3 -1 6 -10 6 -9 0 -21
8 -26 18 -8 12 -10 13 -11 3 0 -10 -8 -7 -27 10 -14 13 -22 17 -18 9 8 -13 6
-13 -8 -2 -9 8 -21 11 -28 7 -6 -4 -15 -2 -19 5 -5 8 -13 9 -21 4 -20 -12 -38
-14 -45 -3 -4 6 -11 6 -19 -1 -8 -7 -19 -9 -25 -5 -5 3 -10 2 -10 -4 0 -6 -11
-13 -25 -17 -14 -3 -25 -11 -25 -16 0 -6 -7 -8 -15 -4 -8 3 -14 1 -12 -3 1 -5
-9 -19 -23 -32 -14 -13 -27 -28 -28 -34 -7 -32 -14 -45 -22 -40 -5 3 -7 -4 -5
-15 2 -11 1 -20 -3 -20 -10 0 -8 -107 1 -116 12 -12 8 -26 -5 -18 -10 6 -10 4
0 -7 18 -20 15 -47 -8 -59 -11 -6 -20 -18 -20 -28 0 -14 -2 -14 -9 -3 -7 11
-10 10 -15 -5 -3 -11 -19 -28 -35 -39 -16 -10 -28 -22 -26 -25 2 -3 -12 -16
-31 -29 -18 -13 -31 -27 -28 -32 5 -8 -9 -13 -28 -10 -4 0 -5 -11 -2 -25 3
-16 1 -23 -6 -19 -6 4 -7 -2 -2 -17 10 -27 9 -69 -3 -88 -5 -9 -4 -11 3 -6 14
9 15 -3 3 -24 -6 -8 -7 -19 -3 -25 10 -15 10 -85 0 -79 -4 3 -4 -5 0 -18 10
-26 9 -69 -2 -86 -3 -6 -2 -13 4 -17 5 -3 10 -11 10 -16 0 -6 -5 -7 -12 -3 -7
5 -8 3 -2 -7 11 -18 13 -100 2 -93 -4 3 -4 -6 2 -20 6 -17 6 -27 -1 -32 -7 -4
-6 -10 1 -19 16 -20 -13 -39 -39 -26 -12 7 -22 7 -26 2 -3 -5 -18 -7 -33 -4
-15 3 -31 5 -37 4 -61 -6 -115 -5 -115 2 0 5 -6 5 -13 -1 -18 -15 -37 0 -32
26 2 12 0 24 -5 27 -6 3 -6 15 0 30 6 16 5 25 -3 29 -7 2 -7 5 -2 5 10 1 11
100 1 126 -3 8 -1 15 4 15 9 0 6 38 -4 47 -3 3 -1 15 4 28 5 14 5 26 -3 34 -7
7 -8 11 0 11 10 0 9 53 -2 71 -4 5 -1 9 6 9 8 0 8 4 1 13 -7 8 -7 18 -2 27 5
9 5 19 -2 27 -6 8 -7 13 -1 13 6 0 8 18 6 40 -4 41 11 85 27 75 11 -7 90 43
90 56 0 5 8 9 18 9 14 0 15 2 2 10 -10 6 -11 10 -2 10 17 0 49 34 44 48 -2 7
2 12 8 12 7 0 10 6 7 14 -3 8 -1 16 5 18 6 2 13 13 16 24 8 35 8 164 0 164 -4
0 -5 7 -2 15 4 8 -1 17 -10 21 -9 3 -13 10 -10 15 3 6 -2 22 -12 37 -10 15
-17 30 -16 35 1 4 -5 7 -14 7 -8 0 -12 5 -9 10 3 6 -1 10 -9 10 -8 0 -20 9
-26 21 -7 11 -14 18 -17 15 -3 -3 -12 2 -20 12 -10 11 -12 12 -8 2 4 -8 -1 -6
-10 5 -9 11 -18 19 -20 18 -3 -2 -18 0 -35 3 -16 4 -32 5 -36 4 -4 -1 -11 4
-15 12 -6 9 -9 9 -9 1 0 -8 -9 -9 -30 -3 -19 6 -28 5 -24 -1z m69 -183 c16 -3
31 -10 35 -16 4 -7 10 -11 14 -11 3 1 14 -7 24 -17 16 -18 19 -25 27 -62 2 -8
4 -19 6 -25 1 -5 -3 -23 -10 -40 -7 -16 -12 -32 -11 -33 1 -2 -16 -16 -37 -32
-32 -24 -46 -28 -98 -27 -56 1 -88 13 -79 29 2 4 -4 9 -13 12 -32 10 -45 65
-34 148 2 12 51 58 62 58 6 0 8 4 5 9 -3 5 8 8 25 7 16 -1 32 1 35 6 3 5 9 6
13 4 4 -3 20 -7 36 -10z m855 -84 c14 -6 21 -11 17 -11 -5 -1 -1 -8 7 -17 9
-8 14 -20 11 -25 -4 -5 0 -9 7 -9 9 0 9 -3 -2 -10 -13 -9 -13 -10 0 -11 10 0
11 -2 3 -6 -7 -2 -13 -9 -13 -15 0 -14 -26 -38 -34 -31 -3 4 -6 2 -6 -4 0 -5
-18 -10 -39 -9 -22 0 -37 4 -35 8 2 3 -4 9 -14 12 -21 7 -46 73 -30 78 5 2 11
12 12 23 2 11 9 19 15 18 6 -2 11 1 11 7 0 5 7 7 15 4 8 -4 15 -1 15 5 0 12
22 10 60 -7z m-1800 -172 c0 -5 5 -10 10 -10 13 0 45 -32 60 -60 10 -18 10
-21 -2 -14 -10 6 -11 5 -1 -7 15 -19 -1 -89 -23 -102 -8 -5 -12 -13 -8 -18 3
-5 2 -8 -3 -7 -4 1 -18 -4 -31 -11 -13 -7 -30 -10 -38 -7 -9 3 -12 1 -9 -4 3
-6 2 -10 -4 -10 -5 0 -13 5 -16 10 -4 7 -12 7 -25 0 -13 -7 -21 -7 -26 2 -5 7
-2 9 7 4 8 -4 5 0 -5 8 -11 9 -24 16 -30 16 -5 0 -7 3 -3 6 3 3 -5 18 -18 32
-18 19 -21 29 -13 39 8 10 7 13 -3 14 -11 0 -11 2 -1 6 10 4 10 8 0 21 -10 12
-10 14 0 8 10 -6 17 5 10 19 -2 2 6 11 17 20 11 9 14 13 6 9 -9 -5 -12 -3 -7
4 4 7 12 12 17 12 6 0 16 6 24 13 16 16 115 23 115 7z m2765 -332 c15 -13 32
-34 37 -48 13 -32 16 -70 5 -70 -4 0 -5 -4 -2 -10 5 -9 -49 -74 -63 -76 -4 0
-14 -4 -23 -8 -23 -10 -84 -1 -82 12 2 6 -6 9 -16 7 -25 -5 -55 49 -58 103 -1
23 3 42 8 42 6 0 8 4 5 9 -3 4 3 19 14 31 11 13 20 20 20 16 0 -4 7 -1 15 7
23 23 107 14 140 -15z m-1725 -672 c0 -4 7 -5 15 -2 8 3 22 9 32 13 11 4 14 3
8 -6 -6 -11 -3 -11 16 -1 16 9 24 10 27 2 2 -8 11 -8 29 -1 15 5 29 6 32 2 8
-10 32 -10 49 0 6 5 12 4 12 -1 0 -6 16 -9 36 -7 20 2 47 0 60 -5 17 -7 24 -6
24 3 0 9 2 9 8 1 6 -9 55 -23 107 -30 6 0 18 -4 27 -8 9 -4 25 -9 35 -11 10
-2 19 -4 21 -4 1 -1 4 -1 7 -1 3 0 19 -7 35 -15 17 -9 30 -13 30 -9 0 4 6 1
13 -5 8 -6 17 -8 20 -4 4 3 7 1 7 -6 0 -7 4 -10 9 -6 5 3 12 1 16 -5 4 -6 11
-8 16 -5 5 4 9 1 9 -4 0 -6 8 -11 19 -11 10 0 24 -7 31 -15 7 -8 16 -13 20
-10 4 3 24 -7 45 -20 20 -14 42 -27 48 -28 7 -1 16 -7 22 -14 5 -7 17 -13 25
-15 8 -2 22 -11 31 -20 8 -9 22 -18 29 -20 8 -2 23 -13 33 -26 11 -13 21 -21
24 -18 5 4 37 -22 100 -81 18 -18 38 -33 43 -33 5 0 12 -5 16 -12 5 -7 2 -9
-7 -3 -12 6 6 -11 59 -55 7 -6 10 -15 7 -21 -4 -5 1 -9 9 -9 9 0 16 -7 16 -16
0 -8 5 -12 10 -9 6 3 10 2 10 -4 0 -6 11 -22 25 -36 14 -14 24 -25 21 -25 -3
0 8 -14 24 -32 16 -17 27 -35 24 -40 -3 -4 2 -8 10 -8 9 0 13 -6 10 -14 -3 -9
3 -17 15 -21 12 -4 18 -12 14 -21 -3 -7 0 -14 6 -14 6 0 11 -7 11 -15 0 -7 7
-18 16 -23 9 -5 15 -11 13 -13 -5 -10 13 -49 23 -49 6 0 9 -3 5 -6 -3 -4 7
-31 24 -62 16 -30 29 -62 29 -71 0 -10 5 -22 11 -28 6 -6 12 -17 13 -24 2 -8
6 -23 10 -34 4 -11 14 -37 21 -59 8 -21 12 -43 9 -47 -3 -5 -1 -9 3 -9 5 0 9
-8 10 -18 4 -45 24 -68 48 -53 6 3 12 6 15 7 30 5 59 17 56 23 -2 3 8 7 22 8
15 0 41 4 57 8 17 4 37 7 45 8 8 0 20 3 25 8 6 4 32 9 58 10 27 2 50 7 53 11
3 5 11 5 17 1 16 -10 38 -10 59 -1 9 5 19 4 22 0 2 -4 28 -8 55 -8 28 1 51 -2
51 -6 0 -3 9 -4 20 -1 11 3 20 1 20 -4 0 -5 15 -10 32 -11 18 -2 43 -9 55 -17
13 -9 24 -11 28 -5 3 5 22 1 45 -11 21 -11 48 -21 59 -22 12 -1 21 -5 21 -10
0 -5 7 -6 16 -3 8 3 12 2 9 -4 -3 -6 1 -10 9 -10 9 0 16 -5 16 -11 0 -5 4 -8
9 -5 4 3 17 -1 27 -9 10 -8 27 -15 37 -15 11 0 15 -4 11 -12 -5 -8 -2 -9 9 -5
11 4 17 1 17 -9 0 -8 4 -13 9 -9 6 3 18 -3 28 -12 10 -10 31 -29 48 -43 22
-19 26 -20 15 -5 -13 18 26 -17 121 -108 16 -16 29 -33 29 -37 0 -5 7 -6 17
-3 10 4 14 2 10 -4 -4 -6 7 -25 23 -43 16 -18 27 -37 23 -43 -3 -6 -1 -7 5 -3
11 7 17 -6 13 -27 -1 -5 3 -5 9 -2 7 4 14 -2 17 -14 3 -12 10 -21 15 -21 5 0
6 -4 3 -10 -3 -6 -1 -10 4 -10 6 0 11 -7 11 -15 0 -8 4 -15 9 -15 5 0 12 -11
15 -25 4 -14 11 -25 16 -25 5 0 7 -7 4 -15 -4 -8 -1 -15 6 -15 6 0 8 -5 4 -11
-3 -6 -2 -14 3 -18 13 -8 44 -73 32 -65 -7 4 -7 0 0 -12 11 -22 23 -53 27 -73
1 -8 6 -26 10 -40 4 -14 6 -30 5 -35 -1 -5 4 -13 11 -17 9 -6 10 -9 1 -9 -9 0
-9 -8 -1 -30 5 -17 8 -37 5 -44 -3 -8 -3 -17 1 -21 12 -12 10 -215 -2 -208 -7
3 -6 1 1 -7 9 -9 9 -19 2 -33 -8 -14 -8 -18 0 -13 8 5 8 0 2 -17 -6 -14 -7
-28 -4 -31 4 -3 1 -6 -5 -6 -7 0 -12 -5 -12 -11 0 -5 6 -7 13 -3 6 4 5 -1 -4
-12 -9 -10 -15 -27 -14 -36 2 -10 0 -18 -5 -18 -5 0 -7 -8 -5 -17 1 -10 -2
-23 -7 -30 -5 -7 -7 -17 -3 -23 3 -5 1 -10 -6 -10 -7 0 -9 -3 -6 -6 4 -4 -3
-20 -15 -37 -12 -17 -17 -27 -10 -23 8 5 10 2 6 -8 -3 -9 -10 -16 -16 -16 -5
0 -7 -4 -3 -9 3 -5 -2 -17 -11 -25 -11 -12 -12 -16 -2 -16 8 0 7 -4 -4 -11
-10 -5 -18 -17 -18 -24 0 -8 -6 -15 -12 -15 -9 0 -8 -4 2 -10 13 -8 12 -10 -4
-10 -11 0 -17 -3 -13 -6 3 -4 -8 -27 -26 -53 -17 -25 -30 -50 -29 -56 2 -5 1
-7 -3 -3 -10 10 -38 -20 -30 -32 3 -5 -1 -10 -10 -10 -9 0 -13 -4 -10 -10 3
-5 -1 -10 -10 -10 -9 0 -13 -4 -10 -10 3 -5 2 -10 -2 -10 -5 0 -18 -7 -29 -16
-10 -8 -13 -13 -7 -9 8 4 11 1 7 -9 -3 -9 -12 -12 -21 -9 -11 4 -14 2 -9 -5 4
-7 1 -12 -6 -12 -16 0 -54 -41 -50 -53 1 -5 -2 -6 -8 -2 -5 3 -10 1 -10 -5 0
-6 -4 -9 -9 -6 -5 3 -12 -1 -15 -10 -3 -8 -10 -13 -15 -10 -5 3 -12 -1 -15
-10 -3 -8 -10 -12 -16 -9 -5 3 -10 -1 -10 -9 0 -10 -6 -13 -17 -9 -11 4 -14 3
-9 -5 6 -11 -6 -17 -19 -9 -2 1 -10 -7 -18 -17 -8 -10 -19 -16 -24 -13 -6 4
-14 0 -17 -9 -3 -8 -10 -12 -16 -9 -5 3 -10 2 -10 -2 0 -9 -66 -37 -74 -31 -2
2 -13 -6 -25 -16 -16 -14 -21 -16 -21 -5 0 8 -3 10 -8 4 -4 -5 -16 -12 -27
-13 -11 -2 -25 -8 -31 -13 -6 -5 -24 -10 -40 -11 -16 -1 -33 -5 -39 -9 -5 -4
-37 -9 -70 -12 -33 -3 -60 -6 -60 -7 0 -1 -57 -3 -127 -4 -83 -1 -128 2 -128
9 0 7 -3 7 -8 -1 -10 -14 -1372 -14 -1372 1 0 6 -3 6 -8 -1 -9 -14 -104 -13
-114 1 -5 6 -8 5 -8 -2 0 -13 -26 -13 -47 0 -7 5 -13 4 -13 0 0 -13 -323 -11
-332 2 -5 7 -8 7 -8 -1 0 -11 -145 -12 -156 -1 -4 4 -12 3 -18 -1 -17 -10
-246 -9 -239 2 4 5 1 6 -7 1 -20 -12 -121 -15 -114 -3 4 6 -1 6 -13 0 -21 -12
-41 -11 -60 1 -7 5 -13 4 -13 0 0 -10 -326 -11 -336 -1 -4 4 -12 4 -18 1 -18
-12 -416 -10 -416 2 0 6 -3 6 -8 -1 -9 -14 -104 -13 -114 1 -5 7 -8 7 -8 0 0
-14 -410 -14 -410 0 0 7 -3 7 -8 0 -9 -13 -142 -15 -142 -2 0 6 -5 6 -12 0
-11 -8 -212 -10 -228 -3 -3 1 -9 1 -15 0 -31 -7 -55 -6 -55 1 0 4 -12 6 -26 3
-14 -3 -23 -1 -21 3 3 5 -10 8 -29 7 -19 -1 -34 1 -34 5 0 4 -10 8 -22 8 -32
2 -56 8 -64 16 -4 4 -18 7 -31 7 -12 0 -23 5 -23 11 0 5 -4 7 -10 4 -5 -3 -10
0 -10 7 0 9 -3 9 -10 -2 -5 -8 -10 -10 -10 -5 0 6 -9 16 -21 23 -17 11 -20 11
-13 0 4 -7 -2 -5 -13 4 -11 10 -27 18 -36 18 -9 0 -17 4 -17 8 0 4 -20 18 -45
30 -25 12 -45 26 -45 32 0 5 -6 10 -13 10 -7 0 -29 16 -50 36 -20 20 -37 34
-37 30 0 -3 -20 14 -44 39 -24 25 -49 45 -55 45 -7 0 -10 4 -6 9 3 6 -12 27
-32 48 -21 21 -39 45 -41 53 -2 8 -10 20 -18 26 -7 6 -14 15 -14 19 0 4 -10
16 -22 26 -14 13 -17 19 -7 19 10 1 9 4 -4 11 -9 6 -15 14 -12 20 4 5 1 9 -4
9 -6 0 -11 7 -11 15 0 8 -5 15 -11 15 -5 0 -8 4 -4 9 3 5 1 12 -5 16 -6 4 -8
11 -5 16 4 5 3 9 -2 9 -4 0 -13 11 -20 25 -8 19 -8 24 0 19 7 -3 5 0 -4 8 -9
7 -14 19 -12 26 3 6 0 12 -6 12 -6 0 -8 7 -5 15 4 8 1 15 -6 15 -6 0 -8 5 -5
10 3 6 0 10 -7 11 -10 0 -11 2 0 6 8 3 9 9 4 16 -10 13 -36 148 -36 184 0 13
-4 23 -8 23 -5 0 -4 8 1 19 6 10 8 21 5 24 -8 8 -12 67 -4 67 3 0 6 9 6 20 0
11 -4 20 -9 20 -4 0 -5 5 -2 11 4 5 9 29 11 52 2 23 7 56 9 72 3 17 7 39 8 50
1 11 8 25 16 31 11 8 11 13 2 18 -9 6 -9 11 -1 21 7 8 8 20 4 26 -4 7 -3 9 3
6 9 -6 24 37 22 59 0 4 3 10 8 13 8 6 42 75 44 89 0 4 7 14 15 23 8 9 11 19 7
22 -3 4 -1 7 5 7 7 0 12 7 12 15 0 8 5 15 10 15 6 0 10 7 10 15 0 8 5 15 10
15 6 0 10 6 10 13 0 8 11 24 25 37 13 12 22 28 18 34 -3 6 -3 8 2 4 8 -8 35
15 35 31 0 5 14 18 30 28 17 9 30 21 30 25 0 5 28 29 63 54 34 25 65 51 69 58
4 6 8 7 8 2 0 -4 11 -1 25 8 14 9 25 13 25 9 0 -5 5 0 11 10 6 9 14 15 20 12
5 -4 9 -1 9 4 0 6 7 11 16 11 8 0 13 4 10 8 -2 4 4 9 15 10 43 4 49 6 49 14 0
5 5 6 10 3 6 -3 10 -1 10 6 0 6 8 9 18 7 10 -3 23 1 30 8 7 7 19 11 27 8 8 -4
15 -1 15 6 0 6 4 9 9 5 9 -5 24 10 27 28 1 4 3 10 4 15 5 15 7 28 8 50 1 13 5
21 10 19 4 -3 7 12 6 33 0 24 3 37 9 33 6 -4 8 0 4 10 -4 10 -1 17 5 17 6 0 9
3 5 6 -8 8 73 164 85 164 6 0 9 3 5 6 -3 4 -1 12 6 19 28 30 46 55 39 55 -4 0
5 11 21 24 15 13 27 28 27 34 0 7 7 9 17 5 9 -4 14 -2 11 3 -3 5 6 18 19 29
14 11 33 28 43 37 10 9 21 14 24 10 3 -3 6 2 6 12 0 9 5 14 10 11 6 -3 10 -1
10 5 0 6 4 9 9 5 5 -3 16 3 23 12 7 10 20 19 28 21 8 2 18 9 22 15 4 7 8 8 8
3 0 -5 7 -2 16 5 9 7 23 14 32 15 8 2 18 6 21 11 3 4 15 10 26 11 11 2 23 9
26 14 4 6 11 8 17 4 6 -3 13 -2 17 4 4 6 11 8 16 5 5 -4 9 -1 9 4 0 6 3 10 8
10 4 -1 9 0 12 1 3 1 25 4 50 6 25 3 47 9 50 12 8 11 40 11 40 0 0 -5 6 -6 13
-1 16 11 227 10 227 0 0 -5 6 -7 14 -4 7 3 31 1 52 -4 22 -5 44 -11 49 -12 6
-1 16 -6 23 -10 6 -5 17 -5 22 -2 6 3 13 -1 16 -10 6 -13 8 -14 15 -3 7 10 9
11 9 0 0 -7 4 -11 9 -8 5 3 14 -1 21 -9 7 -8 16 -12 21 -9 5 3 9 0 9 -6 0 -6
5 -8 10 -5 6 3 13 -1 16 -9 3 -9 10 -16 15 -16 10 0 49 36 49 45 0 7 19 31 43
53 9 9 17 22 17 30 0 7 5 10 10 7 6 -3 10 -1 10 5 0 7 28 40 62 73 35 34 62
65 60 70 -1 4 7 7 19 7 11 0 18 4 15 9 -3 5 2 15 11 22 14 12 16 12 9 -1 -5
-8 6 1 24 20 19 19 36 34 39 34 3 -1 5 2 4 7 -2 4 4 6 12 3 8 -4 17 1 21 10 3
9 12 16 20 16 8 0 14 5 14 10 0 6 7 10 15 10 8 0 15 5 15 12 0 6 3 8 6 5 4 -4
15 3 25 15 12 13 19 16 19 8 0 -9 8 -6 20 8 19 20 27 24 46 21 3 0 14 9 23 20
10 11 21 18 24 14 4 -3 17 2 29 13 13 12 18 13 13 4 -7 -12 -6 -13 6 -3 16 13
88 41 122 48 30 6 91 29 104 38 6 4 13 3 15 -4 3 -9 11 -7 29 5 14 9 29 13 32
10 4 -4 12 -3 19 2 7 5 24 9 38 9 14 0 28 5 32 10 5 6 8 5 8 -3 0 -10 5 -10
20 -2 12 6 30 8 42 4 11 -3 18 -2 15 2 -3 5 6 9 19 9 13 0 24 -4 24 -9z m2440
-18 c0 -5 9 -8 20 -8 11 0 20 -5 20 -11 0 -5 4 -8 9 -5 8 5 21 -15 20 -31 -1
-3 6 -10 15 -15 9 -5 14 -13 11 -19 -4 -5 0 -9 7 -9 9 0 10 -3 2 -8 -6 -4 -10
-18 -9 -32 2 -28 -20 -80 -35 -80 -6 0 -9 -3 -7 -7 1 -5 -1 -8 -4 -8 -3 0 -14
-7 -24 -15 -17 -13 -18 -13 -11 0 6 12 5 12 -6 -1 -19 -23 -128 -12 -128 13 0
5 -4 7 -8 4 -5 -3 -17 9 -27 27 -10 18 -23 35 -29 39 -7 5 -7 8 2 8 8 0 10 5
6 12 -10 16 -12 58 -2 52 4 -3 8 7 8 21 0 15 4 24 10 20 6 -3 10 1 10 9 0 8 9
18 20 21 11 3 20 11 20 16 0 6 3 8 8 6 4 -3 16 -1 27 3 25 9 75 8 75 -2z
m-4957 -4231 c9 -1 17 -7 17 -13 0 -7 8 -15 18 -18 21 -7 40 -51 38 -92 -1
-32 -43 -94 -63 -94 -6 0 -19 -7 -27 -16 -15 -14 -16 -14 -17 3 0 10 -3 13 -6
6 -6 -15 -49 -17 -58 -3 -4 6 -12 7 -18 4 -7 -4 -9 -4 -5 0 4 5 -3 18 -15 30
-21 20 -24 27 -32 69 -2 9 -7 22 -11 29 -4 7 -3 8 4 4 8 -4 12 0 12 12 0 24
49 78 67 74 7 -2 13 1 13 6 0 5 15 8 33 5 17 -2 40 -5 50 -6z m4927 0 c0 9 7
10 24 3 13 -5 26 -6 29 -3 3 3 16 -4 28 -16 12 -11 27 -17 33 -14 6 3 8 3 4
-2 -4 -4 -2 -17 4 -29 6 -11 12 -34 13 -51 1 -36 -22 -88 -35 -80 -6 4 -7 -2
-3 -12 3 -10 3 -15 -2 -11 -4 4 -15 2 -23 -4 -18 -15 -102 -19 -102 -5 0 6 -3
7 -7 4 -9 -9 -44 23 -37 34 3 5 -2 9 -11 9 -11 0 -15 5 -12 15 4 8 2 17 -4 21
-11 7 -6 52 10 81 5 11 7 23 3 27 -3 4 2 4 12 0 13 -5 17 -4 12 4 -4 7 3 14
19 18 14 3 25 11 25 18 0 6 5 4 10 -4 6 -10 10 -11 10 -3z m-935 -267 c9 7 15
8 19 1 4 -6 13 -8 21 -4 8 3 15 0 15 -7 0 -6 5 -8 10 -5 6 3 10 1 10 -4 0 -6
8 -11 17 -11 9 0 14 -3 10 -6 -3 -3 3 -16 14 -27 11 -12 17 -27 15 -34 -3 -7
-1 -13 4 -13 5 0 8 -9 7 -20 -1 -11 -6 -20 -12 -20 -5 0 -4 -4 4 -9 9 -6 10
-11 2 -15 -6 -4 -9 -12 -6 -17 4 -5 1 -9 -5 -9 -6 0 -9 -4 -6 -9 7 -10 -50
-62 -58 -54 -3 4 -6 1 -6 -5 0 -6 -8 -11 -17 -11 -10 -1 -25 -1 -33 -1 -30 -2
-70 7 -83 19 -8 6 -17 8 -21 4 -4 -4 -4 1 0 11 5 14 4 17 -4 12 -7 -4 -12 -1
-12 8 0 8 -5 16 -10 18 -6 2 -12 13 -13 26 0 12 -5 22 -10 22 -5 0 -4 7 3 15
10 12 10 15 0 15 -9 0 -9 4 1 17 8 9 13 18 11 20 -7 9 30 62 48 68 11 3 20 11
20 16 0 6 4 8 8 5 4 -2 14 -1 22 4 9 6 16 6 18 -1 3 -6 9 -6 17 1z m-3125
-320 c0 12 2 12 9 2 4 -8 11 -13 15 -13 22 3 34 -2 60 -24 16 -14 27 -25 23
-25 -3 0 3 -17 13 -37 10 -21 15 -42 10 -48 -9 -10 -10 -16 -10 -39 0 -8 -7
-22 -16 -30 -8 -9 -13 -16 -9 -16 3 0 0 -6 -7 -14 -7 -8 -16 -12 -20 -10 -3 2
-13 -3 -22 -12 -9 -8 -20 -13 -25 -9 -5 3 -12 1 -15 -3 -4 -7 -39 -8 -56 -2
-3 1 -8 2 -12 1 -5 0 -8 4 -8 10 0 5 -4 7 -10 4 -5 -3 -10 -1 -10 4 0 6 -6 11
-12 11 -45 1 -71 131 -36 175 11 14 16 25 11 25 -15 0 55 41 77 45 13 2 25 7
28 10 3 3 9 0 14 -7 6 -10 8 -9 8 2z m2418 -397 c8 -7 19 -10 25 -6 6 4 8 0 4
-10 -4 -11 -1 -17 8 -17 7 0 17 -5 21 -12 4 -7 3 -8 -4 -4 -7 4 -6 -3 2 -18
12 -25 10 -90 -3 -82 -4 3 -8 -5 -8 -17 -1 -12 -7 -23 -13 -25 -6 -2 -17 -10
-25 -19 -8 -8 -19 -11 -25 -8 -5 3 -10 2 -10 -3 0 -15 -74 -8 -90 8 -13 14
-14 14 -5 0 9 -13 8 -13 -8 -1 -25 20 -60 90 -53 107 3 8 0 14 -7 14 -7 0 -6
4 3 10 8 5 15 15 15 22 1 20 29 58 42 58 7 0 13 4 13 8 0 13 104 9 118 -5z"/>
<path d="M3177 4399 c-9 -6 -17 -7 -17 -4 0 3 -11 -6 -25 -21 -13 -14 -22 -30
-19 -35 3 -5 1 -9 -4 -9 -8 0 -10 -6 -14 -50 -1 -11 -6 -20 -10 -20 -4 0 -5
-9 -3 -20 2 -11 0 -20 -5 -20 -4 0 -7 -11 -6 -25 2 -13 0 -22 -5 -20 -4 3 -8
-3 -9 -12 -4 -71 -6 -83 -14 -83 -4 0 -6 -7 -2 -15 3 -8 1 -15 -4 -15 -5 0 -7
-9 -5 -20 2 -11 -1 -20 -6 -20 -6 0 -7 -5 -4 -10 4 -6 1 -17 -5 -25 -7 -8 -9
-15 -5 -15 4 0 3 -6 -2 -12 -6 -7 -9 -21 -8 -30 2 -10 -1 -18 -5 -18 -5 0 -7
-9 -5 -20 2 -11 1 -20 -3 -20 -7 0 -10 -10 -15 -65 -1 -14 -6 -25 -11 -25 -4
0 -6 -7 -2 -15 3 -8 2 -15 -3 -15 -4 0 -7 -18 -7 -39 1 -22 -3 -39 -9 -38 -5
1 -9 -4 -7 -12 1 -7 -1 -18 -6 -25 -5 -6 -8 -19 -7 -28 2 -10 0 -18 -5 -18 -5
0 -7 -8 -5 -17 1 -10 0 -22 -4 -28 -3 -5 -6 -14 -8 -20 -5 -22 -15 -71 -17
-80 -1 -5 -4 -14 -7 -20 -3 -5 -5 -19 -5 -30 1 -11 -5 -26 -12 -34 -11 -12
-11 -15 0 -22 7 -5 8 -9 3 -9 -6 0 -16 -13 -22 -30 -7 -18 -7 -30 -2 -30 6 0
4 -6 -3 -14 -16 -17 -29 -11 -21 11 5 12 3 14 -7 8 -9 -5 -11 -4 -6 4 4 6 3
17 -2 24 -5 7 -10 19 -11 27 -1 21 -9 65 -11 68 -2 1 -4 7 -5 12 -1 6 -4 12
-5 15 -1 3 -4 14 -5 25 -1 11 -3 21 -5 23 -3 4 -22 97 -23 115 0 6 -4 12 -9
12 -5 0 -6 5 -3 10 4 6 1 17 -5 25 -10 12 -10 15 1 15 9 0 10 3 4 8 -11 8 -16
25 -19 59 0 13 -3 23 -6 23 -3 0 -6 10 -7 23 -2 21 -9 56 -13 67 -1 3 -2 12
-1 22 1 9 -3 19 -8 22 -6 4 -8 13 -4 21 3 8 0 15 -6 15 -6 0 -8 7 -5 15 4 8 1
15 -5 15 -6 0 -8 7 -5 15 4 8 0 23 -7 32 -12 14 -12 16 0 8 11 -6 12 -5 5 6
-4 8 -10 19 -11 24 -9 37 -17 83 -17 102 -1 11 -4 19 -7 17 -4 -2 -9 14 -13
36 -3 22 -11 40 -17 40 -5 0 -7 5 -4 10 3 6 0 10 -9 10 -8 0 -16 4 -18 9 -4
13 -68 22 -68 10 0 -6 -5 -7 -10 -4 -21 13 -67 -49 -61 -82 1 -7 -3 -13 -8
-13 -5 0 -8 -9 -6 -20 2 -11 -1 -20 -7 -20 -6 0 -9 -3 -5 -6 3 -4 0 -21 -7
-38 -7 -17 -12 -39 -10 -49 1 -9 -2 -17 -6 -17 -5 0 -7 -9 -5 -20 2 -11 -1
-22 -6 -25 -5 -4 -7 -10 -4 -15 3 -5 1 -11 -5 -15 -6 -4 -8 -11 -5 -16 4 -5 1
-9 -5 -9 -6 0 -8 -5 -5 -10 4 -6 2 -17 -5 -25 -8 -9 -8 -15 0 -20 7 -4 5 -13
-5 -28 -8 -12 -15 -32 -15 -44 0 -13 -4 -23 -9 -23 -6 0 -8 -9 -6 -20 2 -11
-1 -22 -6 -25 -5 -4 -7 -11 -4 -16 4 -5 2 -9 -3 -9 -5 0 -8 -10 -7 -22 1 -13
-2 -25 -6 -28 -7 -5 -16 -44 -18 -79 -1 -8 -8 -11 -21 -8 -11 3 -18 2 -16 -2
6 -9 -336 -8 -350 1 -6 4 -14 4 -18 0 -11 -10 -208 -11 -228 0 -10 5 -19 4
-23 -2 -4 -6 -20 -9 -35 -6 -17 2 -31 -1 -34 -7 -3 -8 -5 -7 -5 2 -1 9 -9 5
-25 -12 -13 -14 -27 -23 -30 -20 -6 6 -7 0 -10 -47 0 -14 -5 -28 -11 -32 -6
-5 -5 -8 3 -8 6 0 12 -7 12 -17 0 -9 3 -14 6 -10 3 3 17 -4 30 -16 20 -17 38
-21 104 -21 44 -1 80 3 80 7 0 5 5 5 12 1 6 -4 126 -7 266 -7 l255 0 26 -26
c25 -25 91 -39 91 -19 0 4 7 8 15 8 8 0 17 11 21 25 3 14 11 22 16 19 6 -4 8
-1 6 7 -3 8 1 30 8 51 7 20 10 39 7 42 -4 3 -1 6 6 6 7 0 10 4 7 8 -3 5 3 37
14 72 11 35 17 67 14 72 -3 4 0 8 6 8 6 0 9 4 6 8 -3 5 1 20 8 33 7 14 12 33
10 42 -1 9 2 17 7 17 4 0 5 7 2 17 -4 11 -3 14 5 9 8 -5 10 -2 6 8 -7 18 21
23 31 6 3 -5 1 -10 -6 -10 -8 0 -9 -3 0 -13 6 -8 8 -17 4 -20 -3 -4 -1 -7 5
-7 7 0 11 -3 11 -7 -4 -24 2 -53 10 -49 5 4 7 -3 4 -14 -3 -11 -1 -26 4 -33 5
-6 8 -22 7 -34 0 -13 2 -23 6 -23 4 0 7 -6 7 -12 3 -37 11 -79 16 -85 4 -3 7
-18 7 -33 0 -15 3 -30 7 -34 4 -3 8 -14 9 -24 2 -19 11 -55 18 -80 3 -9 8 -29
11 -44 3 -16 7 -40 10 -55 3 -16 8 -36 11 -45 10 -33 16 -64 19 -93 2 -28 18
-75 32 -98 4 -6 1 -7 -6 -2 -10 6 -11 3 -2 -14 7 -11 9 -21 5 -21 -3 0 -1 -6
5 -13 6 -8 8 -17 4 -20 -3 -4 0 -14 8 -24 12 -15 12 -16 -1 -8 -12 6 -13 5 -2
-6 6 -7 12 -19 12 -26 0 -18 32 -53 42 -47 4 3 8 1 8 -4 0 -5 14 -12 30 -14
17 -3 30 -1 30 4 0 4 3 7 8 6 14 -4 53 23 47 33 -4 5 -1 8 6 7 7 -2 14 7 15
20 1 12 3 24 4 27 1 3 4 10 5 15 1 6 4 12 5 15 5 10 8 25 9 51 1 16 5 23 13
18 7 -5 8 -3 3 6 -4 7 -2 16 6 21 10 6 10 9 2 9 -9 0 -10 7 -2 27 5 14 8 32 5
40 -3 7 -2 13 3 13 9 0 29 76 33 128 1 6 4 12 7 12 3 0 7 15 8 32 2 18 7 34
13 36 6 2 7 8 4 13 -3 6 -2 15 3 22 5 7 9 28 8 49 0 20 3 34 7 32 7 -5 13 27
9 49 0 4 3 7 7 7 5 0 8 14 7 30 -1 17 2 30 6 30 4 0 6 11 5 25 -2 14 1 22 7
18 6 -4 8 2 5 15 -4 12 -2 22 3 22 5 0 9 10 9 23 0 13 6 29 13 36 10 11 9 12
-3 6 -12 -7 -13 -6 -4 6 6 8 10 24 9 37 -1 12 2 22 6 22 4 0 11 19 15 43 9 48
10 55 14 62 1 3 3 15 4 28 1 13 7 21 16 19 12 -3 12 -1 3 9 -13 13 -6 42 8 33
5 -3 6 2 3 10 -3 9 -1 16 5 16 10 0 15 -14 12 -32 0 -5 3 -8 8 -8 5 0 12 -7
15 -16 3 -8 2 -12 -4 -9 -6 3 -10 2 -10 -3 0 -6 8 -13 17 -16 14 -6 15 -9 4
-15 -9 -6 -10 -11 -2 -15 6 -4 9 -11 6 -16 -3 -5 -1 -11 4 -15 6 -3 8 -12 4
-20 -3 -8 0 -15 6 -15 6 0 11 -13 11 -28 0 -15 5 -33 12 -40 7 -7 8 -12 4 -12
-5 0 -2 -8 5 -17 10 -11 10 -14 2 -9 -7 4 -13 2 -13 -3 0 -6 4 -11 8 -11 5 0
9 -6 10 -12 0 -7 3 -24 7 -38 3 -14 7 -29 8 -35 2 -5 7 -16 11 -24 7 -11 6
-12 -5 -6 -12 8 -12 6 0 -8 8 -10 11 -20 8 -24 -4 -3 -2 -11 3 -18 5 -6 11
-20 13 -31 1 -10 6 -25 10 -31 5 -7 5 -13 1 -13 -3 0 0 -8 7 -17 12 -15 12
-16 -1 -8 -13 7 -13 6 -2 -7 7 -9 14 -30 15 -47 1 -17 4 -31 7 -31 3 0 6 -10
7 -22 1 -11 8 -25 15 -29 9 -6 10 -9 1 -9 -9 0 -8 -9 3 -35 8 -19 11 -35 7
-35 -4 0 -2 -5 5 -12 7 -7 12 -24 12 -38 0 -14 6 -32 13 -39 10 -11 9 -12 -3
-6 -13 8 -13 7 -1 -8 7 -9 10 -17 6 -17 -4 0 -2 -7 5 -15 6 -8 9 -19 6 -24 -4
-5 -2 -12 4 -16 6 -4 8 -10 5 -15 -3 -5 -1 -11 5 -15 6 -4 8 -11 5 -16 -4 -5
-3 -15 1 -21 5 -7 9 -19 10 -28 3 -20 12 -55 14 -55 1 0 4 -11 7 -25 7 -39 11
-55 13 -55 1 0 3 -9 5 -20 2 -11 6 -29 9 -40 2 -11 5 -30 5 -43 1 -13 5 -21
10 -18 5 3 7 -8 6 -24 -1 -17 1 -30 6 -30 5 0 7 -13 5 -30 -2 -16 1 -27 5 -24
8 5 13 -9 10 -28 0 -4 13 -18 29 -30 35 -26 96 -32 104 -11 3 8 10 12 15 9 12
-8 41 38 41 63 0 11 4 22 9 26 6 3 10 13 10 23 1 37 5 52 12 52 4 0 6 8 4 18
-1 9 0 22 4 27 3 6 7 21 9 35 2 13 6 27 10 30 4 3 7 14 8 25 1 23 10 62 30
123 8 24 12 48 9 53 -4 5 -1 9 4 9 6 0 10 3 9 8 -6 18 25 101 36 95 7 -5 7 -2
-1 8 -7 9 -9 20 -3 29 6 9 5 17 -3 22 -9 6 -9 8 1 8 7 0 10 5 7 10 -3 6 -1 10
5 10 7 0 10 7 6 15 -3 8 -2 15 3 15 4 0 8 6 9 13 1 14 10 52 12 52 1 0 3 9 5
19 2 11 7 31 11 45 4 14 8 29 9 34 2 4 3 8 4 10 2 2 9 38 13 72 2 11 7 23 12
27 8 5 15 34 18 76 1 6 6 12 11 12 5 0 4 6 -2 14 -8 10 -8 15 -1 18 6 2 11 17
13 35 1 17 5 29 10 26 4 -2 8 7 8 21 2 33 3 39 10 51 4 6 5 18 3 28 -1 12 2
17 11 14 9 -4 11 1 8 14 -4 13 0 19 13 19 9 0 15 -3 12 -6 -4 -3 -2 -20 3 -37
10 -33 17 -57 24 -92 3 -11 14 -56 24 -100 11 -44 17 -83 15 -87 -3 -5 0 -8 6
-8 7 0 10 -7 7 -15 -4 -8 -2 -17 3 -20 6 -4 10 -11 10 -16 0 -6 -5 -7 -11 -3
-6 3 -3 -9 7 -27 9 -19 18 -47 19 -64 2 -16 4 -30 5 -30 1 0 4 -13 6 -30 3
-16 9 -31 14 -33 5 -2 7 -9 4 -16 -3 -7 1 -31 9 -54 11 -30 11 -44 3 -53 -8
-9 -8 -10 3 -4 11 6 13 4 8 -8 -3 -9 -2 -19 4 -22 5 -4 7 -11 4 -16 -4 -5 -1
-9 6 -9 9 0 9 -3 0 -14 -8 -9 -8 -15 -2 -18 6 -1 12 -20 13 -40 2 -21 5 -38 8
-38 3 0 7 -15 8 -32 2 -18 7 -37 12 -42 4 -4 6 -15 3 -24 -4 -10 -2 -13 5 -8
7 4 12 1 12 -8 0 -8 5 -18 12 -22 7 -5 8 -2 3 7 -4 8 2 3 15 -9 18 -19 24 -21
31 -10 6 8 9 9 9 1 0 -14 63 1 68 17 2 6 8 8 12 5 5 -3 16 8 25 25 8 16 13 30
10 30 -3 0 1 15 8 33 8 17 13 42 12 55 -1 12 2 22 5 22 8 0 25 66 32 118 1 6
6 12 11 12 5 0 3 8 -4 17 -10 11 -10 14 -1 9 7 -4 12 -2 13 6 0 7 3 22 5 33 2
11 5 28 6 38 1 9 5 17 8 17 4 0 7 6 7 13 1 20 11 66 17 75 3 5 8 24 11 43 4
19 8 41 10 49 1 8 7 14 13 13 5 -1 8 7 5 17 -3 11 0 26 6 33 6 8 8 17 4 20 -3
4 0 13 6 21 7 9 10 24 6 37 -5 14 -4 19 4 15 6 -4 12 -2 12 3 1 6 3 16 4 21 1
6 3 13 4 17 2 12 41 -36 41 -51 0 -7 7 -16 15 -20 8 -3 15 -9 14 -13 -3 -20 2
-34 11 -28 6 3 7 -1 4 -9 -4 -9 -1 -16 6 -16 7 0 10 -8 7 -20 -3 -11 -1 -18 4
-15 4 3 11 -6 15 -20 3 -14 10 -25 14 -25 5 0 12 -9 15 -20 4 -11 11 -18 16
-15 5 4 16 2 26 -3 18 -11 62 4 75 24 5 8 92 11 293 10 157 -1 285 2 285 5 0
3 12 5 28 5 16 -1 26 4 24 12 -1 6 5 12 13 12 8 0 16 6 16 13 6 59 5 77 -2 77
-5 0 -6 6 -4 13 3 7 -10 21 -31 32 -31 16 -57 19 -202 19 -105 0 -170 4 -174
11 -5 7 -8 6 -8 -1 0 -14 -178 -13 -199 0 -9 6 -12 5 -8 -1 4 -7 -5 -10 -22
-9 -26 1 -33 8 -63 71 -18 38 -32 73 -30 78 1 4 -2 7 -7 7 -5 0 -15 16 -22 35
-7 19 -17 35 -22 35 -4 0 -6 4 -2 9 3 5 1 12 -5 16 -6 4 -8 11 -5 16 4 5 2 9
-4 9 -6 0 -16 18 -22 40 -7 22 -17 40 -22 40 -6 0 -7 3 -4 7 8 7 -39 52 -56
54 -7 1 -22 3 -34 4 -13 1 -23 -2 -23 -6 0 -5 -6 -8 -12 -6 -7 1 -12 -4 -11
-10 2 -7 -4 -13 -12 -13 -8 0 -15 -9 -15 -19 0 -11 -5 -23 -11 -26 -6 -4 -8
-13 -5 -21 3 -8 0 -14 -7 -14 -8 0 -8 -3 2 -9 10 -7 10 -10 1 -13 -7 -2 -14
-16 -14 -32 -1 -15 -8 -31 -16 -36 -11 -7 -11 -10 -2 -10 10 0 10 -5 2 -20 -6
-11 -8 -25 -5 -30 3 -6 2 -10 -4 -10 -5 0 -8 -9 -6 -20 2 -11 0 -20 -6 -20 -5
0 -9 -10 -9 -23 0 -13 -5 -28 -12 -35 -9 -9 -9 -12 1 -12 10 0 11 -3 2 -13 -6
-8 -8 -17 -4 -20 3 -4 1 -7 -6 -7 -7 0 -11 -6 -8 -14 3 -7 -1 -23 -8 -34 -8
-10 -12 -22 -8 -25 3 -4 0 -14 -8 -24 -12 -15 -12 -16 1 -8 12 7 13 6 3 -6
-11 -13 -23 -55 -25 -86 -1 -7 -5 -13 -9 -13 -5 0 -6 -6 -3 -14 3 -8 1 -17 -5
-20 -6 -4 -8 -13 -4 -21 3 -8 0 -15 -5 -15 -6 0 -9 -9 -7 -20 4 -22 -6 -32
-21 -22 -14 9 -27 45 -14 37 15 -9 12 2 -6 19 -12 12 -12 16 -2 16 10 0 10 2
1 8 -6 4 -13 19 -15 32 -2 14 -7 31 -12 39 -7 11 -6 12 5 6 12 -8 12 -6 1 8
-8 9 -11 21 -7 27 3 5 2 10 -4 10 -6 0 -8 6 -5 14 3 8 0 17 -6 21 -8 5 -7 11
2 23 10 12 10 14 1 8 -9 -5 -13 0 -15 16 -2 30 -4 40 -12 60 -4 9 -5 22 -1 28
3 5 1 10 -5 10 -6 0 -9 4 -5 9 3 5 1 12 -4 16 -6 3 -8 12 -4 20 3 8 1 15 -5
15 -5 0 -8 11 -7 25 2 14 0 25 -4 25 -4 0 -8 10 -8 23 -4 49 -8 77 -13 77 -5
0 -7 10 -11 65 -1 14 -5 25 -10 25 -5 0 -8 3 -8 8 5 28 -2 52 -13 46 -10 -6
-10 -5 -1 7 7 9 8 20 3 29 -5 8 -6 18 -4 22 3 4 1 8 -4 8 -5 0 -8 11 -7 25 2
14 0 25 -4 25 -4 0 -7 8 -8 18 -5 49 -9 68 -15 73 -5 3 -9 17 -10 32 -1 15 -6
27 -11 27 -4 0 -5 4 -2 10 3 5 0 7 -8 4 -8 -3 -17 2 -21 11 -3 10 -13 15 -20
12 -8 -3 -17 -1 -20 6 -3 9 -5 8 -5 -1 -1 -10 -6 -10 -22 -1 -12 6 -19 7 -16
1 4 -5 -5 -14 -20 -21 -14 -6 -23 -15 -19 -18 3 -3 1 -12 -5 -20 -6 -7 -8 -13
-3 -13 5 0 3 -4 -5 -9 -8 -5 -14 -23 -13 -40 0 -17 -3 -31 -8 -31 -5 0 -7 -9
-5 -20 2 -11 0 -20 -5 -20 -5 0 -8 -13 -6 -30 2 -17 -1 -28 -7 -27 -6 1 -12
-5 -13 -13 0 -8 -2 -17 -3 -20 -1 -3 -4 -16 -6 -30 -6 -42 -10 -55 -20 -62 -6
-5 -4 -8 5 -8 11 0 12 -2 3 -8 -7 -5 -14 -20 -15 -35 -1 -15 -5 -27 -8 -27 -3
0 -6 -8 -7 -17 -1 -10 -3 -25 -6 -33 -2 -8 -7 -32 -12 -52 -4 -21 -11 -38 -15
-38 -4 0 -6 -11 -5 -25 2 -14 -1 -25 -5 -25 -5 0 -7 -9 -5 -20 2 -11 0 -20 -4
-20 -4 0 -8 -6 -9 -12 -2 -33 -14 -73 -24 -79 -7 -4 -7 -9 1 -13 7 -5 6 -14
-4 -30 -8 -12 -12 -25 -9 -29 3 -3 2 -12 -2 -19 -10 -15 -16 -43 -18 -75 -1
-11 -5 -19 -10 -15 -5 3 -7 -2 -3 -11 3 -10 3 -17 -2 -17 -4 0 -8 -6 -9 -12 0
-7 -4 -26 -7 -43 -3 -16 -6 -36 -7 -42 -1 -7 -5 -13 -10 -13 -4 0 -7 -3 -6 -7
4 -16 -14 -93 -20 -89 -4 2 -8 -8 -9 -22 -4 -49 -15 -92 -24 -92 -5 0 -8 -3
-8 -7 1 -5 1 -16 0 -26 -1 -24 -26 -16 -26 8 0 10 -6 20 -13 23 -10 3 -10 7 0
20 11 13 11 14 -1 7 -11 -6 -13 -4 -8 9 5 11 3 15 -5 10 -7 -5 -9 0 -6 14 4
12 2 22 -3 22 -5 0 -8 3 -8 8 5 28 -2 52 -13 46 -9 -5 -9 -2 1 9 10 13 10 17
1 17 -7 0 -10 7 -6 15 3 8 2 15 -2 15 -4 0 -9 14 -10 32 -2 17 -8 38 -14 45
-6 7 -8 16 -5 20 4 3 1 13 -6 21 -10 13 -9 14 1 8 11 -7 12 -4 3 11 -6 11 -7
24 -3 28 4 5 1 5 -5 1 -9 -5 -13 2 -15 21 -1 36 -3 43 -15 73 -6 14 -9 33 -7
43 1 10 -1 15 -6 12 -5 -3 -9 3 -9 12 -1 37 -5 53 -11 53 -4 0 -6 11 -5 25 2
14 -1 25 -5 25 -5 0 -7 9 -5 20 2 11 -1 20 -7 20 -5 0 -8 7 -5 15 4 8 2 17 -4
21 -6 3 -8 12 -5 19 2 7 2 16 -2 20 -4 4 -8 11 -8 16 -1 5 -2 10 -4 12 -1 1
-3 9 -5 17 -2 8 -8 35 -14 60 -13 50 -19 75 -25 105 -2 11 -9 33 -15 48 -6 16
-9 33 -5 38 3 5 1 9 -5 9 -6 0 -8 6 -5 14 3 8 0 17 -5 21 -6 3 -9 11 -6 16 4
5 3 15 -2 22 -4 6 -8 18 -9 25 -7 44 -30 118 -39 124 -6 5 -5 8 3 8 9 0 9 7
-3 30 -9 17 -13 30 -11 30 3 0 -1 18 -9 39 -7 22 -10 43 -7 47 4 4 3 5 -3 2
-12 -7 -37 17 -27 26 3 4 -1 4 -11 0 -9 -3 -17 -2 -17 3 0 12 -32 13 -53 2z"/>
<path d="M1090 6182 c0 -9 -65 -28 -82 -24 -5 1 -7 -4 -5 -10 1 -7 -4 -12 -10
-10 -7 1 -13 -3 -13 -9 0 -5 -4 -8 -9 -4 -5 3 -12 -4 -16 -15 -4 -11 -10 -18
-15 -15 -8 5 -25 -24 -21 -39 1 -5 -5 -6 -14 -2 -9 3 -13 2 -10 -4 3 -6 0 -10
-7 -10 -11 0 -10 -2 0 -9 11 -6 10 -10 -3 -15 -11 -4 -15 -13 -12 -26 3 -13 1
-18 -6 -13 -6 4 -8 0 -4 -10 3 -9 2 -19 -3 -22 -5 -3 -7 -15 -5 -27 3 -12 -1
-26 -8 -30 -9 -6 -9 -8 2 -8 11 0 11 -3 1 -15 -9 -11 -9 -15 -1 -15 7 0 10 -4
6 -9 -3 -5 -1 -12 4 -16 6 -3 8 -12 4 -20 -3 -8 0 -15 7 -15 6 0 8 -5 5 -10
-8 -13 33 -80 48 -80 7 0 6 -4 -3 -10 -13 -9 -13 -10 0 -10 9 0 23 -8 32 -17
32 -34 53 -48 66 -45 9 2 11 -1 6 -9 -4 -8 -3 -10 4 -5 6 4 22 1 34 -7 13 -7
37 -12 53 -11 17 1 33 -3 37 -9 4 -8 10 -8 20 0 7 6 23 9 36 8 12 -1 22 3 22
8 0 5 6 7 14 4 8 -3 22 2 33 11 10 9 25 18 33 20 23 6 40 23 33 35 -3 6 -1 7
6 3 6 -4 13 -1 16 6 6 14 25 18 113 21 28 1 52 -2 52 -6 0 -5 5 -5 11 -1 7 4
98 7 203 6 260 -1 243 1 249 -22 3 -11 0 -20 -6 -20 -7 0 -5 -5 3 -10 8 -5 10
-10 5 -10 -6 0 -8 -26 -5 -70 3 -44 1 -70 -5 -70 -5 0 -3 -5 5 -10 8 -5 10
-10 5 -10 -22 0 -3 -74 25 -102 16 -14 25 -30 22 -34 -4 -4 3 -1 16 5 12 7 26
10 31 7 4 -3 22 10 39 29 16 19 27 37 24 39 -4 2 -5 50 -2 106 3 58 1 105 -5
111 -5 6 -5 9 2 9 7 0 9 9 5 22 -9 35 -28 68 -35 61 -4 -3 -7 2 -7 12 0 10 -3
16 -6 12 -4 -3 -22 11 -41 31 -20 20 -39 36 -44 35 -4 -2 -11 6 -14 17 -4 11
-10 18 -15 15 -5 -3 -11 -2 -13 2 -3 5 -69 8 -146 7 -78 0 -144 3 -147 8 -3 4
-11 5 -17 1 -16 -11 -207 -11 -201 -1 3 4 0 8 -6 8 -7 0 -10 6 -7 14 3 7 0 19
-6 26 -9 10 -9 11 1 6 14 -8 17 10 2 19 -5 3 -7 12 -3 20 3 8 0 15 -7 15 -7 0
-10 7 -7 15 4 8 2 17 -4 20 -5 4 -7 11 -4 16 4 5 -1 9 -10 9 -9 0 -14 4 -11 9
3 5 -1 14 -9 21 -8 7 -12 17 -8 24 3 6 3 8 -2 4 -4 -4 -16 2 -26 14 -11 11
-19 18 -19 14 0 -4 -6 -1 -14 6 -8 7 -11 17 -8 22 3 5 0 6 -6 2 -7 -4 -27 0
-44 10 -66 34 -70 36 -64 25 4 -5 -2 -9 -14 -8 -11 1 -20 4 -20 8 0 10 -34 6
-42 -5 -4 -6 -13 -4 -22 3 -9 8 -16 9 -16 3z m127 -191 c10 -9 23 -19 28 -22
6 -2 9 -10 9 -16 -1 -7 2 -10 7 -7 8 5 14 -17 10 -38 0 -5 4 -8 10 -8 6 0 7
-5 2 -12 -4 -7 -9 -22 -10 -32 -2 -11 -8 -25 -13 -31 -5 -7 -7 -14 -4 -18 10
-9 -44 -39 -57 -31 -7 4 -9 3 -6 -3 10 -15 -18 -24 -32 -10 -8 8 -11 8 -11 -2
0 -11 -3 -11 -15 -1 -8 6 -19 9 -24 6 -5 -4 -12 -2 -16 4 -4 6 -11 7 -17 4 -7
-4 -8 -2 -4 4 4 7 2 12 -4 12 -6 0 -8 4 -5 10 4 6 -1 7 -11 3 -12 -4 -15 -3
-10 5 4 7 3 12 -2 12 -18 0 -19 99 -1 111 12 7 11 9 -1 9 -11 1 -9 6 7 19 12
10 20 21 18 25 -3 3 -2 4 2 1 3 -3 13 1 22 9 31 27 97 26 128 -3z"/>
<path d="M3536 812 c-2 -4 -17 -7 -32 -7 -16 1 -37 -7 -48 -17 -11 -10 -26
-18 -33 -18 -8 0 -12 -4 -8 -9 3 -5 -4 -12 -15 -16 -11 -4 -17 -11 -14 -17 5
-7 1 -9 -9 -5 -12 4 -17 1 -17 -9 0 -9 -9 -18 -20 -21 -10 -3 -22 -14 -26 -25
-3 -11 -8 -17 -11 -14 -3 2 -18 -9 -34 -25 -15 -16 -36 -29 -46 -29 -15 0 -15
-2 -4 -9 11 -7 4 -11 -24 -17 -26 -5 -40 -3 -43 5 -2 6 -8 9 -13 5 -5 -3 -9
-1 -9 4 0 5 -7 9 -15 10 -8 1 -22 3 -30 4 -8 1 -15 5 -15 10 0 4 -5 8 -11 8
-5 0 -7 -5 -3 -11 4 -8 1 -8 -12 -2 -11 5 -30 7 -44 6 -30 -4 -73 -11 -80 -13
-3 -1 -8 -2 -12 -1 -5 0 -8 -3 -8 -9 0 -6 -3 -9 -7 -8 -13 4 -81 -41 -87 -58
-3 -8 -11 -12 -16 -9 -6 4 -10 3 -9 -2 3 -17 -1 -33 -8 -32 -20 3 -26 -2 -13
-11 13 -8 11 -11 -7 -16 -13 -4 -20 -11 -16 -20 3 -8 0 -14 -5 -14 -6 0 -9 -9
-7 -20 2 -11 1 -20 -3 -20 -11 0 -9 -64 2 -72 8 -6 8 -8 0 -8 -6 0 -11 -7 -11
-15 0 -8 5 -15 11 -15 6 0 4 -5 -4 -10 -12 -8 -12 -10 -1 -10 8 0 11 -7 8 -20
-3 -11 -1 -20 4 -20 5 0 11 -11 15 -24 3 -14 14 -32 25 -42 10 -9 16 -21 13
-25 -3 -5 1 -9 8 -9 8 0 20 -9 28 -20 8 -11 20 -20 27 -20 7 0 13 -3 13 -7 0
-9 49 -33 67 -33 7 0 13 -3 13 -7 0 -5 31 -8 69 -8 38 0 67 3 64 8 -2 4 7 6
21 3 15 -3 24 -1 21 5 -6 8 8 13 28 10 4 0 7 4 7 10 0 5 4 8 9 5 5 -3 12 1 15
10 4 9 9 14 12 11 8 -7 33 16 28 25 -2 4 5 9 16 13 11 3 20 11 20 17 0 5 9 23
20 38 11 16 21 40 22 54 1 14 6 26 11 26 5 0 7 9 4 20 -3 11 -2 20 2 20 3 0 5
18 3 40 -2 22 -9 40 -14 40 -6 0 -5 6 2 15 10 12 9 16 -4 21 -9 3 -16 10 -16
16 0 5 6 6 13 2 6 -4 3 2 -7 14 -13 15 -15 22 -6 22 7 0 10 3 7 7 -7 6 22 36
61 62 12 8 19 17 18 20 -2 3 2 12 10 19 8 7 14 10 14 6 0 -4 12 5 27 20 18 19
35 26 50 23 12 -2 21 -1 18 2 -2 4 16 2 40 -3 24 -6 42 -13 40 -16 -2 -3 14
-5 34 -4 42 1 84 20 76 35 -4 5 -2 9 3 9 5 0 9 16 9 35 0 19 -4 35 -9 35 -5 0
-7 3 -5 8 2 4 -8 18 -21 32 -14 14 -22 18 -18 10 4 -8 0 -6 -9 5 -9 11 -21 19
-27 17 -6 -2 -15 3 -19 10 -7 10 -9 10 -9 -1 0 -11 -3 -11 -15 -1 -8 7 -12 16
-9 21 3 5 3 9 0 9 -3 0 -7 -4 -10 -8z m-552 -374 c-5 -7 -3 -8 7 -2 18 11 52
12 60 1 3 -4 16 -9 27 -10 12 -1 25 -9 28 -19 3 -10 10 -18 15 -18 6 0 7 -4 4
-10 -3 -5 -2 -10 3 -10 5 0 9 -23 9 -51 0 -45 -4 -55 -33 -85 -19 -18 -34 -31
-34 -27 0 3 -6 1 -13 -5 -15 -12 -87 -11 -87 1 0 5 -4 5 -10 2 -5 -3 -10 -1
-10 5 0 7 -7 10 -15 6 -10 -4 -15 1 -15 14 0 11 -7 20 -15 20 -9 0 -12 6 -9
15 4 8 2 15 -3 15 -14 0 -10 63 5 78 7 8 10 17 7 22 -3 4 2 11 11 14 8 3 12
10 9 16 -5 9 -1 11 20 10 3 -1 13 6 21 15 18 18 28 20 18 3z"/>
</g>
</svg>
